<?xml version="1.0" encoding="UTF-8"?>
<svg id="Layer_2" data-name="Layer 2" xmlns="http://www.w3.org/2000/svg" viewBox="0 0 355.66 162.26">
  <defs>
    <style>
      .cls-1 {
        fill: #fff;
      }

      .cls-2 {
        fill: aqua;
      }

      .cls-3 {
        fill: blue;
      }

      .cls-4 {
        fill: lime;
      }

      .cls-5 {
        fill: #f0f;
      }

      .cls-6 {
        fill: red;
      }

      .cls-7 {
        fill: #ff0;
      }
    </style>
  </defs>
  <g id="silly_white" data-name="silly white">
    <g>
      <path class="cls-1" d="M62.08,13.62c.82,.05,1.5,.81,1.46,1.53l-4.19,71.53c-.05,.82-.81,1.5-1.63,1.45l-11.61-.68c-.72-.04-1.2-.69-1.55-1.64l-1.33-3.79c-4.15,3.88-10.88,6.17-17.76,5.77C9.22,86.84-.97,74.28,.07,56.4c1.04-17.78,12.63-29.06,28.87-28.11,4.83,.28,9.37,1.99,12.31,4.64l1.11-19.01c.04-.72,.8-1.4,1.62-1.35l18.09,1.06Zm-21.96,38.73c-1.04-3.46-4.19-5.92-7.79-6.13-5.65-.33-9.73,4.17-10.15,11.37-.43,7.4,3.08,12.56,8.73,12.89,3.6,.21,7.02-1.86,8.45-5.18l.76-12.95Z"/>
      <path class="cls-1" d="M67.27,31.05c-.36-.7-.2-1.43,.38-1.99,5.61-4.09,13.68-6.79,21.9-7.34,17.77-1.18,26.61,7.62,27.97,28.06l1.77,26.61c.05,.82-.62,1.59-1.44,1.64l-12.94,.86c-.82,.05-1.69-.61-1.75-1.43l-.9-2.73c-3.15,3.82-9.78,6.53-17.28,7.03-11.81,.78-20.12-6.3-20.77-17.6-.56-10.07,6.8-17.27,18.41-18.04,5.96-.4,11.44,1.41,13.72,4.56l-.29-4.31c-.29-4.42-3.67-7.08-8.39-6.77-4.01,.27-8.85,1.93-12.11,4.11-.49,.34-1.14-.03-1.59-.72l-6.67-11.94Zm29.73,29.8c-1.86-1.63-3.66-2.34-5.82-2.19-2.57,.17-4.22,1.72-4.07,3.98,.15,2.26,1.99,3.58,4.56,3.41,2.16-.14,3.85-1.08,5.48-2.94l-.15-2.26Z"/>
      <path class="cls-1" d="M175.3,31.22c.92,.1,1.25,.87,.96,1.56l-24.14,51.35c-.39,.68-1.39,1.29-2.21,1.2l-20.66-2.34c-.82-.09-1.56-.9-1.68-1.64l-12.17-55.46c-.23-.75,.37-1.41,1.18-1.32l19.23,2.17c.92,.1,1.57,.8,1.78,1.65l4.84,30.49,11.53-28.64c.31-.9,1.29-1.3,2-1.22l19.33,2.19Z"/>
      <path class="cls-1" d="M200.79,9.9c.38,6.06-3.88,10.46-10.66,10.89s-11.56-3.39-11.94-9.46c-.4-6.37,3.85-10.87,10.63-11.3s11.57,3.5,11.97,9.87Zm-1.4,12.16c.82-.05,1.59,.62,1.63,1.34l3.38,53.53c.05,.82-.62,1.59-1.44,1.64l-18.08,1.14c-.82,.05-1.59-.62-1.64-1.44l-3.38-53.53c-.05-.72,.63-1.48,1.45-1.54l18.08-1.14Z"/>
      <path class="cls-1" d="M268.2,5.74c.82,.05,1.5,.82,1.45,1.53l-4.46,71.51c-.05,.82-.81,1.5-1.64,1.44l-11.61-.72c-.72-.04-1.19-.69-1.55-1.64l-1.31-3.8c-4.16,3.87-10.9,6.13-17.79,5.7-16.23-1.01-26.38-13.61-25.27-31.49,1.11-17.77,12.74-29.02,28.97-28,4.83,.3,9.36,2.03,12.29,4.69l1.18-19.01c.04-.72,.81-1.39,1.63-1.34l18.08,1.13Zm-22.11,38.64c-1.02-3.47-4.17-5.93-7.77-6.16-5.65-.35-9.75,4.14-10.19,11.33-.46,7.4,3.03,12.57,8.68,12.92,3.6,.22,7.03-1.83,8.47-5.15l.81-12.95Z"/>
      <path class="cls-1" d="M76.7,150.81c.23,.59-.21,1.29-.95,1.72-6.41,2.69-14.78,3.84-20.91,2.83-19.47-3.23-30.3-17.85-27.19-36.56,3.11-18.71,18.08-29.05,37.55-25.82,6.13,1.02,13.68,4.81,18.88,9.43,.56,.65,.75,1.45,.34,1.94l-8.41,12.08c-.57,.79-1.38,.99-2.04,.32-2.37-2.38-6.24-4.35-9.79-4.94-7.85-1.3-13.85,2.89-15.12,10.53-1.27,7.64,3.06,13.55,10.91,14.85,3.55,.59,7.85-.02,10.86-1.51,.84-.41,1.54,.04,1.83,.97l4.06,14.15Z"/>
      <path class="cls-1" d="M107.77,85.08c.87-.02,1.65,.66,1.66,1.44l.36,19.83c2.88-3.49,8.07-5.65,13.96-5.75,13.08-.24,20.94,6.3,21.15,17.68l.65,35.83c.01,.79-.74,1.49-1.61,1.5l-19.18,.35c-.87,.02-1.65-.66-1.55-1.44l-.56-30.82c-.07-3.93-2.07-6.15-5.45-6.09-6.21,.11-7.09,5.63-7.09,5.63l.57,31.51c.01,.79-.74,1.49-1.61,1.5l-19.18,.35c-.87,.02-1.65-.66-1.66-1.44l-1.24-68.22c-.01-.79,.74-1.49,1.61-1.5l19.18-.35Z"/>
      <path class="cls-1" d="M179.85,90.08c-.6,6.4-5.78,10.3-12.95,9.62-7.16-.67-11.53-5.46-10.93-11.87,.63-6.73,5.83-10.73,12.99-10.06,7.16,.67,11.52,5.57,10.89,12.3Zm-3.47,12.48c.87,.08,1.56,.91,1.49,1.67l-5.31,56.55c-.08,.87-.91,1.56-1.78,1.48l-19.1-1.79c-.87-.08-1.56-.91-1.48-1.78l5.31-56.55c.07-.76,.9-1.45,1.77-1.37l19.1,1.79Z"/>
      <path class="cls-1" d="M235,150.16c.36,.52,.08,1.31-.54,1.89-5.64,4.07-13.53,7.08-19.74,7.47-19.69,1.24-33.54-10.55-34.74-29.48-1.19-18.93,11.07-32.38,30.76-33.62,6.2-.39,14.41,1.6,20.52,4.93,.69,.5,1.06,1.24,.77,1.81l-5.47,13.67c-.38,.9-1.12,1.27-1.92,.78-2.84-1.79-7.06-2.83-10.65-2.6-7.94,.5-12.84,5.94-12.35,13.67,.49,7.72,6.03,12.51,13.97,12.01,3.59-.23,7.64-1.79,10.24-3.92,.73-.59,1.51-.31,2,.53l7.15,12.87Z"/>
      <path class="cls-1" d="M236.78,93.21c-.33-.76-.11-1.53,.55-2.07,6.21-3.92,14.94-6.21,23.66-6.21,18.86,0,27.58,9.92,27.58,31.61v28.23c0,.87-.76,1.64-1.64,1.64h-13.73c-.87,0-1.74-.76-1.74-1.64l-.76-2.94c-3.6,3.82-10.79,6.21-18.75,6.21-12.54,0-20.82-8.07-20.71-20.06,.11-10.68,8.39-17.77,20.71-17.77,6.32,0,11.99,2.29,14.17,5.78v-4.58c0-4.69-3.38-7.74-8.39-7.74-4.25,0-9.48,1.42-13.08,3.49-.54,.33-1.2-.11-1.64-.87l-6.21-13.08Zm29.32,33.58c-1.85-1.85-3.71-2.73-6-2.73-2.73,0-4.58,1.53-4.58,3.93s1.85,3.92,4.58,3.92c2.29,0,4.14-.87,6-2.72v-2.4Z"/>
      <path class="cls-1" d="M301.07,138.94c.22-.65,.87-.76,1.42-.44,4.25,2.51,8.83,4.47,12.54,4.47,2.29,.22,3.81-1.09,3.81-2.72,0-5.56-23.87-3.82-23.87-24.31,0-11.66,9.92-19.51,24.75-19.51,7.09,0,15.59,2.51,21.37,6.21,.55,.44,.87,.98,.65,1.53l-5.56,12.86c-.22,.65-.87,.76-1.42,.44-4.25-2.72-8.83-4.47-12.54-4.47-2.29-.22-3.82,.87-3.82,2.62,0,5.78,23.87,3.71,23.87,24.42,0,11.66-9.59,19.51-24.09,19.51-7.09,0-15.92-2.51-22.02-6.21-.55-.55-.87-1.09-.65-1.74l5.56-12.65Z"/>
      <g>
        <path class="cls-3" d="M309.43,54.9c0-.77,.04-1.51,.1-2.25-7.77-2.97-12.81-9.73-13.53-18.78-4.03,1.55-7.33,4.09-9.67,7.48-2.54,3.68-3.96,8.3-3.96,13.63,0,13.6,9.28,22.73,23.12,22.73,5.26,0,9.85-1.32,13.53-3.7-6.01-3.89-9.59-10.62-9.59-19.1Z"/>
        <path class="cls-6" d="M319.01,35.88c3.68-2.38,8.27-3.71,13.53-3.71,3.48,0,6.66,.61,9.48,1.7,.06-.77,.11-1.55,.11-2.35,0-5.3-1.42-9.9-3.96-13.57-3.98-5.74-10.71-9.16-19.16-9.16s-15.18,3.41-19.16,9.18c-2.54,3.68-3.96,8.3-3.96,13.63,0,.77,.04,1.53,.1,2.27,2.83-1.09,6-1.7,9.49-1.7,5.26,0,9.85,1.32,13.53,3.71Z"/>
        <path class="cls-5" d="M309.52,52.65c.35-4.36,1.69-8.18,3.86-11.32,1.5-2.17,3.4-4,5.63-5.45-3.68-2.38-8.27-3.71-13.53-3.71-3.49,0-6.66,.61-9.49,1.7,.72,9.04,5.75,15.8,13.53,18.78Z"/>
        <path class="cls-4" d="M351.7,41.35c-2.34-3.39-5.65-5.93-9.68-7.48-.74,9.06-5.76,15.83-13.52,18.8,.06,.73,.09,1.47,.09,2.23,0,8.49-3.58,15.21-9.59,19.1,3.68,2.38,8.27,3.7,13.53,3.7,13.84,0,23.12-9.12,23.12-22.73,0-5.33-1.42-9.95-3.96-13.63Z"/>
        <path class="cls-2" d="M328.6,54.9c0-.76-.04-1.5-.09-2.23-2.83,1.08-6.02,1.66-9.49,1.66s-6.66-.59-9.49-1.68c-.06,.74-.1,1.48-.1,2.25,0,8.49,3.58,15.21,9.59,19.1,6.01-3.89,9.59-10.62,9.59-19.1Z"/>
        <path class="cls-7" d="M319.01,35.88c2.23,1.45,4.13,3.28,5.63,5.45,2.17,3.14,3.52,6.97,3.86,11.33,7.76-2.97,12.78-9.73,13.52-18.8-2.83-1.09-6-1.7-9.48-1.7-5.26,0-9.85,1.32-13.53,3.71Z"/>
        <path class="cls-1" d="M319.01,35.88c-2.23,1.45-4.13,3.28-5.63,5.45-2.17,3.13-3.52,6.96-3.86,11.32,2.83,1.08,6.01,1.68,9.49,1.68s6.67-.58,9.49-1.66c-.34-4.36-1.69-8.2-3.86-11.33-1.5-2.17-3.4-4-5.63-5.45Z"/>
      </g>
    </g>
  </g>
</svg>