<?xml version="1.0" encoding="UTF-8"?>
<svg id="Layer_2" data-name="Layer 2" xmlns="http://www.w3.org/2000/svg" viewBox="0 0 374.77 164.15">
  <defs>
    <style>
      .cls-1 {
        fill: #fff;
      }

      .cls-2 {
        fill: aqua;
      }

      .cls-3 {
        fill: blue;
      }

      .cls-4 {
        fill: lime;
      }

      .cls-5 {
        fill: #f0f;
      }

      .cls-6 {
        fill: red;
      }

      .cls-7 {
        fill: #ff0;
      }
    </style>
  </defs>
  <g id="normal_white" data-name="normal white">
    <g>
      <g>
        <path class="cls-1" d="M89.07,156.4c.34,.52,0,1.26-.67,1.78-6.08,3.56-14.4,5.97-20.82,5.97-20.37,0-33.87-12.15-33.87-30.36s13.5-30.36,33.87-30.36c6.41,0,14.74,2.41,20.82,5.97,.67,.52,1.01,1.26,.67,1.78l-6.53,12.77c-.45,.84-1.24,1.15-2.03,.63-2.81-1.88-7.09-3.14-10.8-3.14-8.21,0-13.62,4.92-13.62,12.36s5.4,12.35,13.62,12.35c3.71,0,7.99-1.26,10.8-3.14,.79-.52,1.58-.21,2.03,.63l6.53,12.77Z"/>
        <path class="cls-1" d="M112.54,88.24c.9,0,1.69,.73,1.69,1.57v21.15c3.04-3.66,8.44-5.86,14.52-5.86,13.5,0,21.49,7.12,21.49,19.27v38.22c0,.84-.79,1.57-1.69,1.57h-19.8c-.9,0-1.69-.73-1.58-1.57v-32.88c0-4.19-2.03-6.6-5.51-6.6-6.41,0-7.43,5.86-7.43,5.86v33.61c0,.84-.79,1.57-1.69,1.57h-19.8c-.9,0-1.69-.73-1.69-1.57V89.81c0-.84,.79-1.57,1.69-1.57h19.8Z"/>
        <path class="cls-1" d="M176.1,94.31c0,6.18-4.95,10.37-12.38,10.37s-12.38-4.19-12.38-10.37c0-6.49,4.95-10.78,12.38-10.78s12.38,4.29,12.38,10.78Zm-2.36,12.25c.9,0,1.69,.73,1.69,1.47v54.55c0,.84-.79,1.57-1.69,1.57h-19.8c-.9,0-1.69-.73-1.69-1.57v-54.55c0-.73,.79-1.47,1.69-1.47h19.8Z"/>
        <path class="cls-1" d="M233.47,156.4c.34,.52,0,1.26-.68,1.78-6.08,3.56-14.4,5.97-20.82,5.97-20.36,0-33.87-12.15-33.87-30.36s13.5-30.36,33.87-30.36c6.41,0,14.74,2.41,20.82,5.97,.68,.52,1.01,1.26,.68,1.78l-6.53,12.77c-.45,.84-1.24,1.15-2.03,.63-2.81-1.88-7.09-3.14-10.8-3.14-8.21,0-13.61,4.92-13.61,12.36s5.4,12.35,13.61,12.35c3.71,0,7.99-1.26,10.8-3.14,.79-.52,1.57-.21,2.03,.63l6.53,12.77Z"/>
        <path class="cls-1" d="M237.7,111.48c-.34-.73-.11-1.47,.56-1.99,6.41-3.77,15.42-5.97,24.42-5.97,19.47,0,28.47,9.53,28.47,30.36v27.12c0,.84-.79,1.57-1.69,1.57h-14.18c-.9,0-1.8-.73-1.8-1.57l-.79-2.83c-3.71,3.66-11.14,5.97-19.35,5.97-12.94,0-21.49-7.75-21.38-19.27,.11-10.26,8.66-17.07,21.38-17.07,6.53,0,12.38,2.2,14.63,5.55v-4.4c0-4.5-3.49-7.43-8.66-7.43-4.39,0-9.79,1.36-13.5,3.35-.56,.32-1.24-.1-1.69-.84l-6.41-12.56Zm30.27,32.25c-1.91-1.78-3.83-2.62-6.19-2.62-2.81,0-4.73,1.47-4.73,3.77s1.91,3.77,4.73,3.77c2.36,0,4.27-.84,6.19-2.62v-2.3Z"/>
        <path class="cls-1" d="M298.53,144.36c.22-.63,.9-.73,1.46-.42,4.39,2.41,9.11,4.29,12.94,4.29,2.36,.21,3.94-1.05,3.94-2.62,0-5.34-24.64-3.66-24.64-23.35,0-11.2,10.24-18.74,25.54-18.74,7.31,0,16.09,2.41,22.05,5.97,.56,.42,.9,.94,.67,1.47l-5.74,12.35c-.22,.63-.9,.73-1.46,.42-4.39-2.62-9.11-4.29-12.94-4.29-2.36-.21-3.94,.84-3.94,2.51,0,5.55,24.64,3.56,24.64,23.45,0,11.2-9.9,18.74-24.87,18.74-7.31,0-16.43-2.41-22.73-5.97-.56-.52-.9-1.05-.68-1.68l5.74-12.15Z"/>
      </g>
      <g>
        <path class="cls-1" d="M65.18,3.15c.9,0,1.69,.74,1.69,1.47V77.79c0,.84-.79,1.58-1.69,1.58h-12.76c-.79,0-1.36-.63-1.81-1.58l-1.69-3.79c-4.29,4.21-11.52,6.94-19.09,6.94C11.97,80.94,0,68.75,0,50.46S11.97,20.08,29.82,20.08c5.31,0,10.39,1.47,13.78,4V4.63c0-.74,.79-1.47,1.69-1.47h19.88Zm-21.58,40.79c-1.36-3.47-4.97-5.78-8.92-5.78-6.21,0-10.39,4.84-10.39,12.19s4.18,12.61,10.39,12.61c3.95,0,7.57-2.31,8.92-5.78v-13.25Z"/>
        <path class="cls-1" d="M74.11,28.07c-.34-.74-.11-1.47,.57-2,6.44-3.78,15.48-5.99,24.51-5.99,19.54,0,28.58,9.57,28.58,30.48v27.23c0,.84-.79,1.58-1.69,1.58h-14.23c-.91,0-1.81-.74-1.81-1.58l-.79-2.84c-3.73,3.68-11.18,5.99-19.43,5.99-12.99,0-21.58-7.78-21.46-19.34,.11-10.3,8.7-17.13,21.46-17.13,6.55,0,12.43,2.21,14.69,5.57v-4.41c0-4.52-3.5-7.46-8.7-7.46-4.41,0-9.83,1.37-13.56,3.36-.56,.32-1.24-.11-1.69-.84l-6.44-12.61Zm30.39,32.38c-1.92-1.79-3.84-2.63-6.21-2.63-2.82,0-4.75,1.47-4.75,3.78s1.92,3.78,4.75,3.78c2.37,0,4.29-.84,6.21-2.63v-2.31Z"/>
        <path class="cls-1" d="M189.98,23.13c1.02,0,1.47,.74,1.24,1.47l-19.99,54.87c-.34,.74-1.36,1.47-2.26,1.47h-22.82c-.9,0-1.81-.74-2.03-1.47l-20.11-54.87c-.34-.74,.23-1.47,1.13-1.47h21.24c1.02,0,1.81,.63,2.15,1.47l9.04,30.38,9.04-30.38c.23-.95,1.24-1.47,2.03-1.47h21.35Z"/>
        <path class="cls-1" d="M216.19,10.83c0,6.2-4.97,10.41-12.43,10.41s-12.43-4.2-12.43-10.41c0-6.52,4.97-10.83,12.43-10.83s12.43,4.31,12.43,10.83Zm-2.37,12.3c.9,0,1.69,.74,1.69,1.47v54.77c0,.84-.79,1.58-1.69,1.58h-19.88c-.91,0-1.69-.74-1.69-1.58V24.6c0-.74,.79-1.47,1.69-1.47h19.88Z"/>
        <path class="cls-1" d="M284.08,3.15c.9,0,1.69,.74,1.69,1.47V77.79c0,.84-.79,1.58-1.69,1.58h-12.77c-.79,0-1.36-.63-1.81-1.58l-1.69-3.79c-4.29,4.21-11.52,6.94-19.09,6.94-17.85,0-29.82-12.19-29.82-30.48s11.98-30.38,29.82-30.38c5.31,0,10.39,1.47,13.78,4V4.63c0-.74,.79-1.47,1.69-1.47h19.88Zm-21.58,40.79c-1.36-3.47-4.97-5.78-8.92-5.78-6.21,0-10.39,4.84-10.39,12.19s4.18,12.61,10.39,12.61c3.95,0,7.57-2.31,8.92-5.78v-13.25Z"/>
        <g>
          <path class="cls-3" d="M324.03,51.49c0-.78,.04-1.55,.11-2.3-8.53-3.04-14.06-9.94-14.85-19.17-4.42,1.58-8.05,4.18-10.61,7.64-2.78,3.75-4.34,8.47-4.34,13.91,0,13.89,10.18,23.21,25.37,23.21,5.77,0,10.81-1.35,14.85-3.78-6.6-3.97-10.52-10.84-10.52-19.5Z"/>
          <path class="cls-6" d="M334.55,32.07c4.04-2.43,9.08-3.79,14.85-3.79,3.82,0,7.3,.62,10.41,1.73,.07-.79,.12-1.58,.12-2.4,0-5.41-1.56-10.11-4.34-13.85-4.36-5.87-11.75-9.35-21.02-9.35s-16.66,3.49-21.02,9.37c-2.78,3.75-4.34,8.47-4.34,13.91,0,.79,.04,1.56,.11,2.32,3.1-1.11,6.59-1.73,10.41-1.73,5.77,0,10.81,1.35,14.85,3.79Z"/>
          <path class="cls-5" d="M324.14,49.19c.38-4.45,1.86-8.35,4.24-11.55,1.65-2.22,3.73-4.09,6.18-5.57-4.04-2.43-9.08-3.79-14.85-3.79-3.83,0-7.31,.62-10.41,1.73,.79,9.23,6.32,16.14,14.85,19.17Z"/>
          <path class="cls-4" d="M370.43,37.65c-2.56-3.46-6.2-6.06-10.62-7.64-.81,9.25-6.32,16.17-14.83,19.19,.06,.75,.1,1.5,.1,2.28,0,8.67-3.92,15.53-10.52,19.5,4.04,2.43,9.08,3.78,14.85,3.78,15.19,0,25.37-9.31,25.37-23.21,0-5.44-1.56-10.16-4.34-13.91Z"/>
          <path class="cls-2" d="M345.08,51.49c0-.78-.04-1.53-.1-2.28-3.1,1.1-6.6,1.69-10.42,1.69s-7.31-.61-10.42-1.71c-.06,.75-.11,1.52-.11,2.3,0,8.67,3.92,15.53,10.52,19.5,6.6-3.97,10.52-10.84,10.52-19.5Z"/>
          <path class="cls-7" d="M334.55,32.07c2.45,1.48,4.53,3.35,6.18,5.57,2.38,3.2,3.86,7.12,4.24,11.57,8.52-3.03,14.02-9.94,14.83-19.19-3.1-1.11-6.58-1.73-10.41-1.73-5.77,0-10.81,1.35-14.85,3.79Z"/>
          <path class="cls-1" d="M334.55,32.07c-2.45,1.48-4.53,3.35-6.18,5.57-2.38,3.2-3.86,7.11-4.24,11.55,3.1,1.1,6.59,1.71,10.42,1.71s7.32-.59,10.42-1.69c-.38-4.45-1.86-8.37-4.24-11.57-1.65-2.22-3.73-4.09-6.18-5.57Z"/>
        </g>
      </g>
    </g>
  </g>
</svg>