<svg xmlns="http://www.w3.org/2000/svg" xmlns:xlink="http://www.w3.org/1999/xlink" width="500" zoomAndPan="magnify" viewBox="0 0 375 374.999991" height="500" preserveAspectRatio="xMidYMid meet" version="1.0"><defs><clipPath id="8b0445d5ec"><path d="M 19.058594 10 L 375 10 L 375 368 L 19.058594 368 Z M 19.058594 10 " clip-rule="nonzero"/></clipPath><clipPath id="1e10c53e3c"><path d="M 19.058594 10 L 375 10 L 375 368 L 19.058594 368 Z M 19.058594 10 " clip-rule="nonzero"/></clipPath></defs><g clip-path="url(#8b0445d5ec)"><path fill="#ffce31" d="M 361.726562 207.347656 C 362.222656 199.710938 361.332031 191.992188 358.855469 184.652344 C 353.921875 170.035156 343.765625 157.667969 330.222656 150.167969 C 327.019531 148.394531 323.65625 146.871094 320.203125 145.59375 C 328.269531 84.753906 288.148438 26.757812 227.011719 13.621094 C 195.851562 6.929688 163.949219 12.75 137.175781 30.003906 C 110.402344 47.261719 91.964844 73.894531 85.261719 104.992188 C 84.890625 106.710938 84.574219 108.429688 84.277344 110.152344 C 79.902344 111.207031 75.644531 112.695312 71.449219 114.660156 C 64.820312 117.765625 58.617188 122.421875 53.703125 127.835938 C 48.238281 133.859375 44.289062 140.515625 41.269531 148.019531 C 40.28125 150.464844 39.492188 153.015625 38.867188 155.613281 C 27.023438 159.667969 19.078125 168.238281 19.988281 177.265625 C 20.347656 180.839844 22.050781 184.089844 24.769531 186.816406 C 23.449219 198.757812 22.125 222.4375 30.617188 232.972656 C 33.0625 236.003906 35.472656 238.78125 37.757812 241.296875 C 39.203125 244.984375 41.007812 248.613281 43.257812 251.664062 C 48.144531 258.300781 54.519531 262.316406 59.109375 264.554688 C 64.40625 270.835938 70.425781 275.804688 75.539062 276.957031 C 76.3125 277.132812 77.058594 277.21875 77.773438 277.21875 C 80.242188 277.21875 82.34375 276.191406 83.9375 274.183594 C 90.445312 265.980469 86.363281 260.582031 82.414062 255.355469 C 79.484375 251.484375 76.71875 247.828125 77.640625 242.84375 C 78.328125 239.105469 78.425781 235.671875 78.21875 232.664062 C 79.746094 234.503906 81.644531 236.445312 84.230469 238.320312 C 89.929688 242.4375 94.171875 244.375 97.601562 244.375 C 98.355469 244.375 99.070312 244.28125 99.75 244.097656 C 102.304688 243.402344 104.253906 241.453125 105.707031 238.140625 C 108.515625 231.734375 104.878906 226.679688 100.671875 220.820312 C 96.796875 215.429688 92.40625 209.324219 91.167969 200.363281 C 89.746094 190.046875 84.945312 183.429688 80.640625 179.441406 C 82.015625 176.734375 82.597656 173.878906 82.308594 171.015625 C 81.523438 163.203125 74.300781 157.039062 64.328125 154.472656 C 65.664062 151.683594 67.230469 149.019531 69.039062 146.503906 C 71.058594 144.074219 73.285156 141.84375 75.71875 139.828125 C 77.929688 138.246094 80.265625 136.863281 82.699219 135.660156 C 83.644531 156.449219 90.0625 176.710938 101.671875 194.660156 C 111.640625 210.066406 124.746094 222.6875 140.015625 231.914062 C 137.667969 241.261719 138.230469 251.539062 141.902344 260.457031 C 145.835938 270.011719 151.882812 278.445312 159.890625 285.050781 C 163.589844 288.101562 167.492188 290.800781 171.574219 293.175781 C 170.738281 294.328125 169.878906 295.460938 169.015625 296.597656 C 165.816406 300.648438 162.457031 304.566406 158.953125 308.355469 C 154.753906 305.714844 150.160156 304.515625 146.183594 304.992188 C 146.195312 304.734375 146.214844 304.464844 146.238281 304.214844 C 146.269531 303.886719 146.289062 303.566406 146.300781 303.253906 C 146.335938 303.015625 146.351562 302.867188 146.355469 302.835938 C 146.371094 302.691406 146.347656 302.550781 146.304688 302.421875 C 146.050781 280.1875 131.863281 268.191406 118.5 268.191406 C 111.976562 268.191406 105.769531 270.300781 100.546875 274.292969 L 100.367188 274.425781 C 99.636719 274.992188 98.980469 275.578125 98.371094 276.171875 C 97.667969 276.632812 96.992188 277.128906 96.371094 277.707031 C 95.570312 278.453125 94.878906 279.402344 94.277344 280.46875 C 93.878906 280.773438 93.484375 281.078125 93.113281 281.421875 C 88.242188 285.96875 86.882812 296.789062 90.148438 305.046875 C 91.140625 307.546875 92.835938 310.746094 94.628906 314.132812 C 97.5 319.546875 100.753906 325.6875 102.230469 330.960938 C 108.078125 351.851562 113.703125 360.628906 117.394531 364.3125 C 118.804688 365.722656 121.300781 366.480469 123.867188 366.890625 C 125.820312 367.394531 127.988281 367.664062 130.3125 367.664062 C 130.753906 367.664062 131.207031 367.648438 131.660156 367.628906 C 132.242188 367.683594 132.839844 367.71875 133.453125 367.71875 C 134.574219 367.71875 136.148438 367.34375 137.773438 366.84375 C 139.804688 366.410156 141.859375 365.8125 143.878906 365.03125 C 153.65625 361.238281 158.40625 355.394531 160.683594 350.128906 C 163.796875 348.089844 166.605469 344.960938 168.578125 341.1875 C 170.492188 337.53125 171.453125 333.640625 171.441406 329.808594 C 179.84375 321.257812 187.433594 312.039062 194.171875 302.253906 C 199.378906 303.472656 204.667969 304.132812 209.984375 304.253906 C 210.773438 305.953125 211.71875 307.535156 212.820312 308.96875 C 208.253906 309.496094 203.878906 311.566406 200.230469 314.996094 C 195.484375 319.460938 192.539062 325.707031 192.539062 331.296875 C 192.539062 336.480469 193.328125 340.621094 194.898438 343.851562 C 194.761719 347.242188 195.273438 351.777344 198.34375 354.839844 C 203.785156 360.269531 211.867188 361.332031 223.996094 361.332031 C 237.53125 361.332031 261.183594 358.8125 267.523438 341.929688 C 269.09375 337.753906 268.828125 333.398438 268.542969 328.785156 C 268.265625 324.289062 267.980469 319.632812 269.5625 315.160156 C 276.039062 296.816406 265.828125 279.597656 259.808594 274.890625 C 254.921875 269.851562 248.253906 266.539062 240.925781 266.144531 C 237.703125 265.976562 234.554688 266.351562 231.554688 267.195312 C 230.011719 266.6875 228.402344 266.390625 226.738281 266.390625 C 219.039062 266.390625 212.386719 272.15625 209.214844 280.488281 C 208.589844 280.460938 207.964844 280.445312 207.339844 280.398438 C 211.683594 272.070312 215.484375 263.4375 218.710938 254.542969 C 219.546875 252.238281 220.328125 249.914062 221.082031 247.582031 C 263.53125 240.628906 300.136719 210.9375 314.648438 168.992188 C 317.828125 170.488281 320.867188 172.242188 323.714844 174.300781 C 326.136719 176.3125 328.359375 178.527344 330.371094 180.945312 C 332.199219 183.492188 333.78125 186.191406 335.101562 189.03125 C 336.289062 192.144531 337.164062 195.351562 337.726562 198.636719 C 337.742188 198.792969 337.75 198.949219 337.761719 199.109375 C 323.824219 198.144531 311.933594 203.65625 309.261719 213.292969 C 307.828125 218.457031 309.289062 224.089844 313.027344 229.195312 C 309.964844 231.207031 297.566406 240.269531 298.101562 254.902344 C 298.027344 263.078125 296.667969 264.25 290.140625 269.882812 L 289.746094 270.222656 C 285.617188 273.785156 283.378906 279.019531 283.898438 283.882812 C 284.320312 287.820312 286.523438 291.066406 290.105469 293.019531 C 295.457031 295.941406 301.699219 289.300781 307.203125 283.445312 C 310.851562 279.558594 314.992188 275.15625 317.160156 275.839844 C 317.292969 275.878906 317.320312 275.929688 317.351562 276 C 317.539062 276.464844 317.386719 277.332031 317.011719 278.453125 C 312.945312 280.824219 304.910156 286.285156 302.621094 293.492188 C 302.050781 295.273438 301.878906 297.050781 302.089844 298.804688 C 300.121094 300.957031 298.449219 303.410156 297.613281 306.113281 C 296.550781 309.550781 296.957031 312.949219 298.820312 316.214844 C 299.386719 317.203125 300.101562 318.023438 300.933594 318.695312 C 301.121094 322.214844 302.507812 325.121094 305.730469 326.957031 C 307.15625 327.769531 308.640625 328.175781 310.167969 328.175781 C 311.242188 328.175781 312.335938 327.976562 313.445312 327.574219 C 318.570312 325.71875 323.40625 319.734375 327.332031 313.300781 C 327.453125 313.328125 327.578125 313.332031 327.707031 313.308594 C 328.074219 313.246094 336.84375 311.570312 351.464844 293.265625 C 366.085938 274.96875 364.941406 242.96875 364.886719 241.613281 C 364.886719 241.605469 364.882812 241.597656 364.882812 241.59375 C 369.402344 239.085938 372.5 235.480469 373.714844 231.101562 C 375.324219 225.304688 373.421875 218.9375 368.359375 213.179688 C 366.480469 211.042969 364.242188 209.085938 361.726562 207.347656 Z M 177.121094 268.460938 C 174.078125 265.976562 171.273438 263.226562 168.78125 260.191406 C 167.09375 257.84375 165.617188 255.363281 164.390625 252.75 C 163.609375 250.640625 163.007812 248.476562 162.601562 246.265625 C 162.496094 244.992188 162.460938 243.71875 162.492188 242.441406 C 167.144531 244.058594 171.910156 245.429688 176.800781 246.480469 C 183.027344 247.816406 189.238281 248.636719 195.402344 248.976562 C 194.5 251.429688 193.550781 253.871094 192.554688 256.289062 C 190.074219 262.027344 187.324219 267.636719 184.308594 273.097656 C 181.820312 271.703125 179.421875 270.152344 177.121094 268.460938 Z M 177.121094 268.460938 " fill-opacity="1" fill-rule="nonzero"/></g><path fill="#f7317d" d="M 257.316406 275.238281 C 257.074219 275.011719 256.835938 274.78125 256.585938 274.566406 C 252.261719 270.84375 246.777344 268.445312 240.820312 268.128906 C 238.703125 268.015625 236.625 268.171875 234.597656 268.53125 C 240.195312 271.707031 244.410156 278.160156 245.773438 285.988281 C 245.84375 286.398438 245.898438 286.816406 245.957031 287.238281 C 246.011719 287.664062 246.070312 288.089844 246.109375 288.519531 C 246.195312 289.484375 246.253906 290.457031 246.253906 291.449219 C 246.253906 303.476562 239.738281 313.589844 230.644531 315.945312 C 231.496094 316.785156 232.402344 317.71875 233.382812 318.785156 C 233.75 319.191406 233.722656 319.820312 233.320312 320.191406 C 232.914062 320.558594 232.285156 320.53125 231.914062 320.128906 C 231.054688 319.191406 230.261719 318.367188 229.507812 317.617188 C 228.542969 316.65625 227.652344 315.824219 226.847656 315.128906 C 225.792969 314.753906 224.507812 314.328125 223.171875 313.90625 C 222.890625 313.816406 222.609375 313.730469 222.328125 313.640625 C 221.972656 313.53125 221.621094 313.421875 221.269531 313.3125 C 220.910156 313.203125 220.558594 313.09375 220.210938 312.988281 C 218.515625 312.476562 216.996094 312.027344 216.082031 311.761719 L 214.976562 311.433594 L 214.800781 311.257812 C 214.671875 311.128906 214.558594 310.980469 214.433594 310.851562 C 209.757812 311.042969 205.277344 312.976562 201.59375 316.441406 C 197.234375 320.542969 194.527344 326.234375 194.527344 331.296875 C 194.527344 334.46875 194.84375 337.191406 195.445312 339.539062 C 195.632812 340.269531 195.851562 340.964844 196.097656 341.617188 C 196.34375 342.269531 196.617188 342.886719 196.925781 343.460938 C 197.554688 344.644531 198.292969 345.6875 199.175781 346.5625 C 204.238281 351.582031 213.371094 351.519531 223.945312 351.449219 C 225.246094 351.4375 226.566406 351.429688 227.902344 351.429688 C 240.953125 351.429688 253.042969 347.089844 258.699219 340.371094 C 261.4375 337.121094 262.488281 333.546875 261.824219 329.75 C 260.578125 322.644531 262.371094 314.609375 263.953125 307.523438 C 265.023438 302.726562 266.03125 298.195312 266.007812 294.519531 C 265.960938 287.589844 263.09375 281.15625 258.503906 276.375 C 258.125 275.976562 257.71875 275.609375 257.316406 275.238281 Z M 201.664062 336.828125 C 201.570312 336.859375 201.472656 336.875 201.375 336.875 C 201.09375 336.875 200.835938 336.746094 200.648438 336.539062 C 200.550781 336.433594 200.46875 336.316406 200.425781 336.171875 C 200.421875 336.15625 200.351562 335.914062 200.261719 335.503906 C 200.195312 335.191406 200.121094 334.78125 200.050781 334.285156 C 199.550781 330.71875 199.5 322.890625 207.175781 317.734375 C 207.636719 317.425781 208.253906 317.550781 208.558594 318.003906 C 208.863281 318.457031 208.742188 319.074219 208.289062 319.378906 C 202.414062 323.324219 201.644531 328.914062 201.835938 332.398438 C 201.863281 332.878906 201.898438 333.328125 201.953125 333.71875 C 202.019531 334.21875 202.097656 334.625 202.164062 334.9375 C 202.246094 335.300781 202.3125 335.539062 202.328125 335.59375 C 202.488281 336.117188 202.191406 336.671875 201.664062 336.828125 Z M 204.824219 344.78125 C 204.195312 344.78125 203.6875 344.269531 203.6875 343.644531 C 203.6875 343.015625 204.195312 342.507812 204.824219 342.507812 C 205.453125 342.507812 205.964844 343.015625 205.964844 343.644531 C 205.964844 344.269531 205.453125 344.78125 204.824219 344.78125 Z M 160.375 334.703125 C 160.578125 336.527344 160.707031 338.433594 160.707031 340.46875 C 160.707031 343.613281 160.09375 346.351562 159.121094 348.765625 C 158.910156 349.28125 158.691406 349.789062 158.449219 350.273438 C 158.210938 350.753906 157.96875 351.238281 157.699219 351.6875 C 154.621094 356.84375 149.789062 360.042969 146.070312 361.886719 C 146.6875 359.765625 147.253906 355.734375 145.882812 349.441406 C 145.746094 348.8125 145.585938 348.164062 145.410156 347.488281 C 145.1875 346.640625 144.929688 345.761719 144.636719 344.84375 C 143.4375 341.101562 141.609375 336.742188 138.910156 331.734375 C 138.316406 330.636719 137.695312 329.515625 137.015625 328.351562 C 136.546875 327.546875 136.058594 326.730469 135.546875 325.894531 C 135.035156 325.066406 134.503906 324.222656 133.949219 323.359375 C 130.476562 317.972656 130.5625 313.3125 130.664062 307.910156 C 130.777344 302.082031 130.902344 295.480469 126.789062 286.417969 C 123.878906 280.011719 118.027344 275.367188 111.128906 273.992188 C 109.019531 273.574219 106.945312 273.5 104.984375 273.753906 C 109.105469 271.417969 113.707031 270.179688 118.5 270.179688 C 131.015625 270.179688 144.316406 281.679688 144.328125 303 C 144.257812 303.4375 144.097656 304.285156 143.777344 305.492188 C 143.679688 305.863281 143.570312 306.261719 143.4375 306.699219 C 143.320312 307.085938 143.183594 307.507812 143.039062 307.945312 C 142.445312 309.722656 141.601562 311.894531 140.386719 314.425781 C 140.152344 314.917969 140.359375 315.511719 140.855469 315.746094 C 140.996094 315.8125 141.140625 315.84375 141.285156 315.84375 C 141.65625 315.84375 142.011719 315.636719 142.183594 315.28125 C 143.644531 312.230469 144.59375 309.679688 145.214844 307.6875 C 145.230469 307.699219 145.238281 307.710938 145.25 307.71875 C 146.265625 308.421875 147.40625 309.308594 148.589844 310.378906 C 148.730469 310.507812 148.867188 310.632812 149.007812 310.761719 C 150.238281 311.914062 151.507812 313.269531 152.738281 314.863281 C 156.242188 319.394531 159.394531 325.835938 160.375 334.703125 Z M 160.375 334.703125 " fill-opacity="1" fill-rule="nonzero"/><path fill="#f7317d" d="M 208.476562 132.433594 C 207.980469 131.882812 207.449219 131.335938 206.855469 130.800781 C 202.960938 127.296875 197.445312 124.582031 191.222656 123.058594 C 190.789062 122.949219 190.363281 122.835938 189.921875 122.738281 C 187.257812 122.167969 184.648438 121.863281 182.148438 121.777344 C 182.089844 121.777344 182.03125 121.777344 181.972656 121.773438 C 181.585938 121.761719 181.191406 121.742188 180.8125 121.742188 C 180.800781 121.742188 180.789062 121.742188 180.777344 121.742188 C 180.679688 121.742188 180.585938 121.746094 180.492188 121.746094 C 180.1875 121.75 179.886719 121.757812 179.585938 121.769531 C 179.3125 121.777344 179.039062 121.785156 178.769531 121.796875 C 170.429688 122.238281 163.914062 125.414062 162.226562 130.410156 C 162.132812 130.699219 162.039062 130.988281 161.972656 131.285156 C 161.925781 131.519531 161.914062 131.761719 161.886719 131.996094 C 161.832031 132.425781 161.8125 132.855469 161.832031 133.289062 C 161.847656 133.707031 161.890625 134.125 161.96875 134.546875 C 161.980469 134.613281 161.996094 134.683594 162.011719 134.753906 C 162.050781 134.949219 162.082031 135.144531 162.136719 135.34375 C 162.167969 135.464844 162.210938 135.585938 162.25 135.707031 C 162.347656 136.015625 162.460938 136.324219 162.589844 136.632812 C 163.054688 137.734375 163.714844 138.832031 164.570312 139.917969 C 165.257812 140.789062 166.058594 141.652344 166.992188 142.492188 C 171.15625 146.238281 177.167969 149.101562 183.925781 150.550781 C 190.679688 152.003906 197.339844 151.863281 202.679688 150.15625 C 207.828125 148.511719 211.09375 145.617188 211.871094 142.003906 C 212.113281 140.886719 212.078125 139.726562 211.839844 138.558594 C 211.417969 136.519531 210.289062 134.441406 208.476562 132.433594 Z M 186.644531 131.753906 C 186.144531 134.730469 182.324219 136.574219 178.109375 135.867188 C 175.335938 135.40625 173.089844 133.949219 172.015625 132.164062 C 171.847656 131.882812 171.707031 131.59375 171.597656 131.300781 C 171.546875 131.160156 171.5 131.023438 171.464844 130.882812 C 171.410156 130.675781 171.375 130.46875 171.351562 130.261719 C 171.328125 130.015625 171.332031 129.769531 171.351562 129.523438 C 171.359375 129.414062 171.363281 129.308594 171.382812 129.203125 C 171.476562 128.644531 171.683594 128.128906 171.992188 127.660156 C 172.628906 126.691406 173.683594 125.933594 174.984375 125.464844 C 174.996094 125.460938 175.011719 125.457031 175.023438 125.449219 C 175.628906 125.238281 176.28125 125.085938 176.972656 125.003906 C 177.128906 124.988281 177.285156 124.976562 177.441406 124.964844 C 177.722656 124.945312 178.003906 124.9375 178.292969 124.941406 C 178.304688 124.941406 178.3125 124.941406 178.324219 124.941406 C 178.632812 124.945312 178.945312 124.96875 179.257812 125 C 179.335938 125.007812 179.414062 125.019531 179.492188 125.03125 C 179.632812 125.050781 179.773438 125.0625 179.917969 125.085938 C 184.132812 125.792969 187.144531 128.777344 186.644531 131.753906 Z M 186.644531 131.753906 " fill-opacity="1" fill-rule="nonzero"/><path fill="#fffff0" d="M 269.425781 299.265625 C 269.933594 304.039062 269.550781 309.21875 267.6875 314.5 C 265.96875 319.351562 266.269531 324.210938 266.558594 328.910156 C 266.828125 333.304688 267.082031 337.453125 265.664062 341.234375 C 259.742188 356.996094 237.015625 359.347656 223.996094 359.347656 C 212.390625 359.347656 204.703125 358.382812 199.75 353.4375 C 198.035156 351.726562 197.289062 349.378906 197.015625 347.109375 C 197.265625 347.402344 197.503906 347.703125 197.773438 347.96875 C 202.785156 352.9375 210.839844 353.449219 220.285156 353.449219 C 221.488281 353.449219 222.714844 353.441406 223.960938 353.433594 C 225.253906 353.425781 226.570312 353.414062 227.902344 353.414062 C 241.515625 353.414062 254.203125 348.796875 260.222656 341.648438 C 263.308594 337.980469 264.542969 333.75 263.78125 329.410156 C 262.605469 322.691406 264.351562 314.863281 265.894531 307.953125 C 266.566406 304.9375 267.210938 302.027344 267.609375 299.328125 Z M 157.5625 309.875 C 156.90625 309.457031 156.238281 309.066406 155.558594 308.722656 C 154.761719 308.980469 152.722656 309.71875 151.871094 310.808594 C 152.625 311.601562 153.382812 312.460938 154.128906 313.410156 C 157.925781 318.238281 161.367188 325.160156 162.378906 334.742188 C 162.570312 336.5625 162.695312 338.453125 162.695312 340.46875 C 162.695312 341.996094 162.535156 344.179688 161.878906 346.671875 C 165.644531 343.242188 168.765625 337.890625 169.347656 331.878906 C 169.605469 329.199219 169.378906 326.390625 168.445312 323.558594 C 166.683594 318.226562 162.507812 313.039062 157.5625 309.875 Z M 137.078125 332.53125 C 135.71875 330.007812 134.136719 327.316406 132.277344 324.4375 C 128.476562 318.542969 128.574219 313.359375 128.675781 307.871094 C 128.785156 302.253906 128.902344 295.890625 124.976562 287.234375 C 122.371094 281.496094 116.917969 277.167969 110.738281 275.941406 C 109.570312 275.707031 108.414062 275.59375 107.289062 275.59375 C 104.464844 275.59375 101.835938 276.316406 99.636719 277.695312 C 99.585938 277.730469 99.535156 277.769531 99.484375 277.800781 C 99.507812 277.792969 99.527344 277.785156 99.550781 277.78125 C 102.359375 276.945312 105.410156 276.816406 108.425781 277.527344 C 114.570312 278.976562 119.410156 283.355469 121.710938 289.542969 C 124.382812 296.730469 124.257812 301.902344 124.140625 306.902344 C 124.015625 312.085938 123.898438 316.980469 127.289062 323.5625 C 128.125 325.183594 129.011719 326.875 129.921875 328.601562 C 136.867188 341.789062 144.734375 356.738281 140.550781 363.648438 C 140.515625 363.703125 140.472656 363.75 140.4375 363.804688 C 141.757812 363.296875 142.953125 362.792969 143.765625 362.433594 C 144.265625 361.277344 146.050781 356.023438 142.765625 345.597656 C 141.601562 341.90625 139.796875 337.566406 137.078125 332.53125 Z M 125.519531 324.472656 C 121.898438 317.441406 122.019531 312.296875 122.152344 306.855469 C 122.265625 302.042969 122.386719 297.0625 119.847656 290.230469 C 117.78125 284.679688 113.453125 280.753906 107.96875 279.460938 C 106.773438 279.179688 105.566406 279.039062 104.378906 279.039062 C 101.777344 279.039062 99.257812 279.714844 97.054688 280.980469 C 96.632812 281.222656 96.222656 281.484375 95.828125 281.773438 C 95.671875 281.886719 95.515625 281.996094 95.367188 282.113281 C 95.058594 282.355469 94.757812 282.601562 94.472656 282.871094 C 94.328125 283.007812 94.195312 283.167969 94.054688 283.316406 C 93.933594 283.445312 93.808594 283.566406 93.695312 283.707031 C 93.117188 284.410156 92.621094 285.246094 92.1875 286.167969 C 89.914062 291.019531 89.683594 298.460938 92 304.316406 C 92.949219 306.71875 94.621094 309.871094 96.386719 313.203125 C 99.304688 318.707031 102.613281 324.949219 104.144531 330.425781 C 108.027344 344.300781 111.757812 352.660156 114.855469 357.710938 C 115.398438 358.597656 115.925781 359.382812 116.425781 360.074219 C 117.285156 361.261719 118.082031 362.195312 118.796875 362.910156 C 119.457031 363.566406 120.78125 364.285156 123.382812 364.777344 C 123.578125 364.8125 123.785156 364.847656 123.996094 364.882812 C 124.625 364.984375 125.316406 365.074219 126.085938 365.148438 C 127.183594 365.253906 128.4375 365.328125 129.859375 365.359375 C 130.4375 365.371094 131.035156 365.378906 131.667969 365.378906 L 132.035156 365.375 C 135.5 365.375 137.726562 364.476562 138.847656 362.625 C 142.453125 356.671875 134.527344 341.617188 128.164062 329.523438 C 127.25 327.792969 126.359375 326.097656 125.519531 324.472656 Z M 68.558594 222.972656 C 68.675781 222.941406 68.785156 222.925781 68.894531 222.902344 C 71.570312 222.3125 73.308594 223.316406 74.882812 225.054688 C 75.394531 225.617188 75.890625 226.257812 76.398438 226.945312 C 76.636719 227.273438 76.878906 227.609375 77.128906 227.953125 C 77.300781 228.191406 77.480469 228.441406 77.660156 228.6875 C 77.703125 228.746094 77.742188 228.800781 77.785156 228.863281 C 77.9375 229.070312 78.097656 229.28125 78.257812 229.496094 C 78.453125 229.757812 78.65625 230.023438 78.867188 230.296875 C 80.457031 232.347656 82.46875 234.59375 85.398438 236.710938 C 91.730469 241.289062 96.125 243.03125 99.230469 242.183594 C 101.164062 241.65625 102.6875 240.074219 103.886719 237.34375 C 106.238281 231.976562 103.226562 227.78125 99.054688 221.976562 C 95.246094 216.675781 90.503906 210.082031 89.199219 200.632812 C 88.242188 193.703125 85.617188 188.523438 82.714844 184.753906 C 81.875 183.660156 81.011719 182.691406 80.15625 181.828125 C 79.964844 181.636719 79.773438 181.449219 79.582031 181.265625 C 79.425781 181.503906 79.257812 181.738281 79.089844 181.972656 C 77.878906 183.648438 76.351562 185.25 74.511719 186.738281 C 74.089844 187.082031 73.460938 187.015625 73.113281 186.589844 C 73.023438 186.476562 72.964844 186.351562 72.929688 186.21875 C 72.832031 185.851562 72.949219 185.449219 73.261719 185.195312 C 75.1875 183.640625 76.738281 181.957031 77.898438 180.195312 C 77.960938 180.097656 78.007812 180 78.070312 179.902344 C 78.199219 179.699219 78.3125 179.496094 78.429688 179.292969 C 78.484375 179.199219 78.542969 179.105469 78.59375 179.011719 C 78.714844 178.792969 78.84375 178.574219 78.949219 178.355469 C 78.996094 178.261719 79.027344 178.167969 79.070312 178.074219 C 80.113281 175.84375 80.5625 173.527344 80.332031 171.214844 C 79.621094 164.152344 72.902344 158.605469 63.585938 156.304688 C 62.5625 159.195312 61.78125 162.15625 61.28125 165.183594 C 61.148438 166.621094 61.097656 168.066406 61.082031 169.507812 C 64.25 170.515625 67.652344 171.652344 67.652344 171.652344 C 67.652344 171.652344 67.640625 171.667969 67.636719 171.671875 C 67.828125 171.730469 68.007812 171.828125 68.140625 172 C 68.472656 172.433594 68.390625 173.058594 67.957031 173.390625 C 67.863281 173.460938 67.414062 173.800781 66.6875 174.292969 C 66.214844 174.613281 65.621094 175 64.929688 175.425781 C 64.328125 175.792969 63.660156 176.183594 62.921875 176.589844 C 59.183594 178.636719 53.824219 180.910156 48.460938 180.910156 C 47.03125 180.910156 45.601562 180.75 44.203125 180.378906 C 42.734375 179.992188 41.410156 179.546875 40.191406 179.070312 C 39.554688 178.820312 38.953125 178.5625 38.382812 178.296875 C 37.820312 178.039062 37.289062 177.773438 36.785156 177.503906 C 31.753906 174.800781 29.773438 171.824219 29.664062 171.652344 C 29.367188 171.191406 29.5 170.578125 29.964844 170.28125 C 30.425781 169.988281 31.039062 170.121094 31.335938 170.582031 C 31.375 170.636719 33.304688 173.484375 38.234375 176.011719 C 37.628906 174.59375 37.269531 173.074219 37.21875 171.53125 C 37.078125 167.007812 37.46875 162.390625 38.367188 157.882812 C 28.015625 161.753906 21.179688 169.230469 21.964844 177.066406 C 22.230469 179.675781 23.320312 182.097656 25.074219 184.230469 C 25.355469 184.574219 25.652344 184.90625 25.964844 185.234375 C 26.25 185.53125 26.5625 185.8125 26.875 186.097656 C 30.800781 189.648438 36.796875 192.132812 43.996094 192.894531 C 44.953125 192.992188 45.925781 193.050781 46.902344 193.085938 C 48.925781 193.160156 50.976562 193.105469 53.035156 192.902344 C 54.980469 192.707031 56.910156 192.386719 58.777344 191.949219 C 59.3125 191.824219 59.84375 192.160156 59.96875 192.691406 C 60.09375 193.226562 59.761719 193.757812 59.226562 193.882812 C 57.28125 194.335938 55.261719 194.671875 53.234375 194.875 C 51.652344 195.035156 50.074219 195.113281 48.507812 195.113281 C 46.914062 195.113281 45.339844 195.03125 43.785156 194.867188 C 36.785156 194.128906 30.839844 191.8125 26.625 188.464844 C 25.421875 200.519531 24.527344 222.253906 32.167969 231.726562 C 33.46875 233.339844 34.757812 234.875 36.027344 236.347656 C 33.464844 228.125 32.589844 220.777344 32.535156 220.28125 C 32.472656 219.738281 32.863281 219.246094 33.410156 219.183594 C 33.972656 219.132812 34.449219 219.511719 34.507812 220.058594 C 34.511719 220.074219 34.535156 220.265625 34.582031 220.605469 C 34.886719 222.867188 36.238281 231.761719 39.511719 240.277344 C 39.855469 241.164062 40.214844 242.046875 40.601562 242.921875 C 41.03125 243.902344 41.492188 244.867188 41.980469 245.804688 C 42.847656 247.46875 43.800781 249.054688 44.859375 250.488281 C 48.15625 254.96875 52.242188 258.214844 55.914062 260.488281 C 54.839844 259.023438 53.8125 257.523438 52.859375 256.011719 C 52.332031 255.175781 51.828125 254.335938 51.34375 253.5 C 50.820312 252.589844 50.324219 251.683594 49.859375 250.785156 C 48.082031 247.34375 46.746094 243.996094 46.070312 241.046875 L 42.425781 225.167969 C 42.320312 224.703125 42.566406 224.257812 42.980469 224.0625 C 43.046875 224.035156 43.101562 223.996094 43.171875 223.976562 C 43.667969 223.867188 44.144531 224.152344 44.3125 224.613281 C 44.328125 224.652344 44.355469 224.683594 44.363281 224.722656 L 44.382812 224.816406 L 48.007812 240.601562 C 48.867188 244.347656 50.867188 248.808594 53.515625 253.261719 C 53.6875 253.550781 53.867188 253.84375 54.046875 254.136719 C 54.222656 254.425781 54.402344 254.714844 54.585938 255.003906 C 56.3125 257.734375 58.265625 260.425781 60.328125 262.910156 C 60.839844 263.527344 61.359375 264.128906 61.882812 264.714844 C 62.394531 265.289062 62.910156 265.855469 63.429688 266.398438 C 67.683594 270.847656 72.160156 274.160156 75.976562 275.023438 C 78.691406 275.636719 80.785156 274.957031 82.378906 272.949219 C 87.933594 265.949219 84.640625 261.597656 80.828125 256.554688 C 77.910156 252.699219 74.605469 248.328125 75.683594 242.484375 C 76.324219 239.011719 76.414062 235.804688 76.230469 232.980469 C 76.199219 232.53125 76.164062 232.09375 76.125 231.667969 C 76.082031 231.234375 76.035156 230.804688 75.984375 230.394531 C 75.945312 230.117188 75.902344 229.859375 75.863281 229.59375 C 75.746094 229.433594 75.625 229.269531 75.515625 229.113281 C 72.96875 225.574219 71.824219 224.167969 69.066406 224.894531 C 68.535156 225.027344 67.992188 224.714844 67.851562 224.183594 C 67.710938 223.65625 68.03125 223.113281 68.558594 222.972656 Z M 160.050781 135.074219 C 160.039062 135.03125 160.03125 134.988281 160.023438 134.941406 C 159.546875 135.027344 159.074219 135.105469 158.621094 135.167969 C 159.097656 135.15625 159.574219 135.125 160.050781 135.074219 Z M 229.859375 150.386719 C 229.863281 150.328125 229.855469 150.269531 229.867188 150.207031 L 240.765625 97.667969 C 241.210938 97.722656 241.65625 97.761719 242.09375 97.785156 C 242.550781 97.804688 243 97.8125 243.445312 97.796875 C 248.902344 97.636719 253.355469 94.863281 254.039062 90.796875 C 254.691406 86.898438 251.683594 83 246.933594 80.984375 C 246.527344 80.8125 246.109375 80.652344 245.679688 80.507812 C 245.261719 80.367188 244.839844 80.242188 244.402344 80.132812 L 247.710938 64.183594 C 234.710938 65.320312 221.605469 81.148438 217 102.5 C 212.308594 124.261719 218.027344 144.417969 229.859375 150.386719 Z M 161.746094 84.476562 C 161.839844 84.492188 161.929688 84.515625 162.019531 84.53125 C 162.371094 84.589844 162.714844 84.632812 163.0625 84.667969 C 169.574219 85.375 175.285156 82.414062 176.0625 77.761719 C 176.808594 73.320312 172.800781 68.878906 166.878906 67.222656 C 166.457031 67.105469 166.027344 67.003906 165.589844 66.914062 C 165.390625 66.875 165.199219 66.828125 164.996094 66.792969 C 164.757812 66.753906 164.519531 66.730469 164.277344 66.699219 L 168.542969 47.210938 C 155.578125 48.429688 142.53125 64.222656 137.941406 85.515625 C 133.382812 106.65625 138.652344 126.28125 149.800781 132.859375 L 160.453125 84.191406 C 160.875 84.300781 161.304688 84.394531 161.746094 84.476562 Z M 311.550781 289.746094 C 313.011719 287.003906 314.5625 284.089844 315.707031 281.621094 C 311.691406 284.285156 306.21875 288.734375 304.515625 294.09375 C 304.222656 295.015625 304.066406 295.9375 304.019531 296.855469 C 306.160156 294.878906 308.429688 293.261719 310.324219 292.054688 C 310.738281 291.269531 311.148438 290.5 311.550781 289.746094 Z M 304.71875 303.460938 C 304.886719 303.074219 305.054688 302.6875 305.230469 302.300781 C 306.195312 300.144531 307.25 297.984375 308.328125 295.878906 C 306.945312 296.921875 305.523438 298.121094 304.210938 299.453125 C 303.9375 299.734375 303.664062 300.019531 303.398438 300.3125 C 303.132812 300.609375 302.875 300.917969 302.625 301.226562 C 301.246094 302.90625 300.117188 304.742188 299.515625 306.699219 C 298.621094 309.59375 298.96875 312.464844 300.546875 315.230469 C 300.6875 315.472656 300.855469 315.675781 301.011719 315.890625 C 301.367188 312.425781 302.601562 308.546875 304.238281 304.59375 C 304.394531 304.21875 304.554688 303.839844 304.71875 303.460938 Z M 361.53125 209.671875 C 361.164062 213.265625 360.488281 216.828125 359.523438 220.316406 C 361.617188 220.996094 363.46875 221.609375 363.988281 221.78125 C 364.164062 221.816406 364.339844 221.878906 364.484375 222.011719 C 364.886719 222.382812 364.914062 223.003906 364.546875 223.410156 C 364.339844 223.632812 359.378906 228.925781 347.675781 229.960938 C 347.191406 230.003906 346.707031 230.023438 346.222656 230.023438 C 334.949219 230.023438 324.414062 218.820312 323.953125 218.324219 C 323.578125 217.921875 323.601562 217.292969 324.003906 216.921875 C 324.40625 216.550781 325.035156 216.574219 325.410156 216.972656 C 325.46875 217.039062 328.597656 220.355469 333.125 223.34375 C 333.398438 222.335938 333.78125 221.34375 334.265625 220.386719 C 334.542969 219.832031 334.792969 219.265625 335.054688 218.703125 C 336.273438 215.539062 337.164062 212.277344 337.734375 208.933594 C 337.988281 206.328125 338.046875 203.714844 337.910156 201.101562 C 324.78125 200.085938 313.617188 205.023438 311.175781 213.820312 C 309.828125 218.675781 311.421875 224.035156 315.273438 228.871094 C 315.617188 229.304688 315.980469 229.730469 316.359375 230.15625 C 316.761719 230.605469 317.183594 231.046875 317.625 231.480469 C 319.917969 233.746094 322.71875 235.839844 325.976562 237.628906 C 326.421875 237.875 326.585938 238.40625 326.402344 238.867188 C 326.386719 238.902344 326.386719 238.941406 326.367188 238.976562 C 326.101562 239.457031 325.496094 239.628906 325.019531 239.367188 C 320.613281 236.949219 316.976562 233.988281 314.261719 230.769531 C 311.773438 232.410156 299.585938 241.164062 300.089844 254.875 C 300.007812 263.992188 298.195312 265.558594 291.441406 271.382812 L 291.042969 271.726562 C 287.40625 274.867188 285.425781 279.445312 285.875 283.671875 C 286.125 285.988281 287.226562 289.1875 291.058594 291.277344 C 295.070312 293.472656 300.742188 287.417969 305.75 282.085938 C 309.90625 277.664062 313.554688 273.78125 316.6875 273.78125 C 317.050781 273.78125 317.40625 273.835938 317.757812 273.945312 C 318.433594 274.15625 318.929688 274.609375 319.191406 275.25 C 319.402344 275.769531 319.441406 276.417969 319.339844 277.183594 C 319.289062 277.570312 319.203125 277.988281 319.078125 278.441406 C 318.957031 278.871094 318.8125 279.328125 318.628906 279.824219 C 317.691406 282.359375 315.933594 285.742188 313.601562 290.125 C 313.503906 290.308594 313.40625 290.488281 313.304688 290.679688 C 313.117188 291.03125 312.925781 291.390625 312.734375 291.75 C 312.433594 292.316406 312.128906 292.890625 311.824219 293.46875 C 309.972656 296.972656 308.054688 300.71875 306.472656 304.390625 C 306.316406 304.75 306.167969 305.109375 306.019531 305.46875 C 305.875 305.816406 305.738281 306.164062 305.601562 306.507812 C 304.003906 310.535156 302.921875 314.390625 302.894531 317.640625 C 302.890625 318.046875 302.90625 318.441406 302.9375 318.824219 C 302.96875 319.210938 303.019531 319.585938 303.085938 319.953125 C 303.5 322.207031 304.621094 324.039062 306.71875 325.234375 C 308.640625 326.328125 310.621094 326.484375 312.765625 325.707031 C 316.476562 324.367188 320.101562 320.476562 323.3125 315.832031 C 323.605469 315.410156 323.890625 314.980469 324.175781 314.550781 C 330.390625 305.089844 334.847656 293.289062 334.917969 293.105469 C 335.109375 292.59375 335.6875 292.332031 336.195312 292.523438 C 336.710938 292.714844 336.972656 293.285156 336.78125 293.800781 C 336.542969 294.433594 333.445312 302.644531 328.757812 310.878906 C 331.699219 309.660156 339.15625 305.488281 349.914062 292.027344 C 362.765625 275.941406 362.996094 247.839844 362.917969 242.570312 C 360.898438 243.472656 358.65625 244.183594 356.203125 244.667969 C 353.695312 245.167969 351.078125 245.414062 348.394531 245.414062 C 344.210938 245.414062 339.871094 244.8125 335.546875 243.617188 C 335.015625 243.472656 334.707031 242.925781 334.851562 242.398438 C 334.863281 242.359375 334.890625 242.332031 334.902344 242.296875 C 335.089844 241.835938 335.578125 241.570312 336.078125 241.707031 C 342.875 243.585938 349.703125 243.941406 355.8125 242.722656 C 357.203125 242.449219 358.511719 242.09375 359.75 241.675781 C 360.324219 241.480469 360.882812 241.277344 361.417969 241.054688 C 361.929688 240.847656 362.425781 240.628906 362.902344 240.394531 C 367.515625 238.132812 370.644531 234.738281 371.800781 230.574219 C 373.222656 225.441406 371.472656 219.726562 366.863281 214.492188 C 365.332031 212.746094 363.523438 211.144531 361.53125 209.671875 Z M 179.917969 125.085938 C 179.773438 125.0625 179.632812 125.050781 179.492188 125.03125 C 179.414062 125.019531 179.335938 125.007812 179.257812 125 C 178.945312 124.96875 178.632812 124.945312 178.324219 124.941406 C 178.3125 124.941406 178.304688 124.941406 178.292969 124.941406 C 178.003906 124.9375 177.722656 124.945312 177.441406 124.964844 C 177.285156 124.976562 177.128906 124.988281 176.972656 125.003906 C 176.28125 125.085938 175.628906 125.238281 175.023438 125.449219 C 175.011719 125.457031 174.996094 125.460938 174.984375 125.464844 C 173.683594 125.933594 172.628906 126.691406 171.992188 127.660156 C 171.683594 128.128906 171.476562 128.644531 171.382812 129.203125 C 171.363281 129.308594 171.359375 129.414062 171.351562 129.523438 C 171.332031 129.769531 171.328125 130.015625 171.351562 130.261719 C 171.375 130.46875 171.410156 130.675781 171.464844 130.882812 C 171.5 131.023438 171.546875 131.160156 171.597656 131.300781 C 171.707031 131.59375 171.847656 131.882812 172.015625 132.164062 C 173.089844 133.949219 175.335938 135.40625 178.109375 135.867188 C 182.324219 136.574219 186.144531 134.730469 186.644531 131.753906 C 187.144531 128.777344 184.132812 125.792969 179.917969 125.085938 Z M 200.261719 335.503906 C 200.351562 335.914062 200.421875 336.15625 200.425781 336.171875 C 200.46875 336.316406 200.550781 336.433594 200.648438 336.539062 C 200.835938 336.746094 201.09375 336.875 201.375 336.875 C 201.472656 336.875 201.570312 336.859375 201.664062 336.828125 C 202.191406 336.671875 202.488281 336.117188 202.328125 335.59375 C 202.3125 335.539062 202.246094 335.300781 202.164062 334.9375 C 202.097656 334.625 202.019531 334.21875 201.953125 333.71875 C 201.898438 333.328125 201.863281 332.878906 201.835938 332.398438 C 201.644531 328.914062 202.414062 323.324219 208.289062 319.378906 C 208.742188 319.074219 208.863281 318.457031 208.558594 318.003906 C 208.253906 317.550781 207.636719 317.425781 207.175781 317.734375 C 199.5 322.890625 199.550781 330.71875 200.050781 334.285156 C 200.121094 334.78125 200.195312 335.191406 200.261719 335.503906 Z M 94.550781 145.367188 C 94.640625 145.84375 95.058594 146.175781 95.523438 146.175781 C 95.585938 146.175781 95.648438 146.167969 95.710938 146.15625 C 96.25 146.054688 96.605469 145.535156 96.503906 144.996094 C 95.671875 140.617188 95.199219 136.390625 94.996094 132.347656 C 94.539062 123.296875 95.457031 115.183594 96.890625 108.363281 C 99.769531 94.667969 104.726562 86.214844 104.8125 86.070312 C 105.09375 85.601562 104.941406 84.992188 104.46875 84.710938 C 104 84.429688 103.390625 84.582031 103.105469 85.050781 C 103.019531 85.199219 97.777344 94.109375 94.835938 108.492188 C 93.429688 115.382812 92.550781 123.527344 93.015625 132.570312 C 93.226562 136.664062 93.710938 140.9375 94.550781 145.367188 Z M 96.058594 152.511719 C 96.058594 153.140625 96.566406 153.648438 97.195312 153.648438 C 97.824219 153.648438 98.335938 153.140625 98.335938 152.511719 C 98.335938 151.882812 97.824219 151.375 97.195312 151.375 C 96.566406 151.375 96.058594 151.882812 96.058594 152.511719 Z M 203.6875 343.644531 C 203.6875 344.269531 204.195312 344.78125 204.824219 344.78125 C 205.453125 344.78125 205.964844 344.269531 205.964844 343.644531 C 205.964844 343.015625 205.453125 342.507812 204.824219 342.507812 C 204.195312 342.507812 203.6875 343.015625 203.6875 343.644531 Z M 215.644531 280.492188 C 216.058594 280.472656 216.472656 280.429688 216.890625 280.398438 C 217.664062 280.339844 218.4375 280.269531 219.214844 280.179688 C 222.449219 279.671875 225.25 279.867188 228.179688 281.414062 C 229.402344 282.054688 230.421875 282.96875 231.273438 284.023438 C 229.023438 277.917969 224.277344 277.222656 224.214844 277.214844 C 223.671875 277.148438 223.285156 276.652344 223.351562 276.109375 C 223.417969 275.566406 223.914062 275.175781 224.460938 275.246094 C 224.554688 275.257812 234.097656 276.589844 234.417969 290.660156 C 234.660156 301.164062 224.359375 305.546875 224.257812 305.589844 C 224.132812 305.640625 224.003906 305.664062 223.878906 305.664062 C 223.488281 305.664062 223.117188 305.4375 222.957031 305.054688 C 222.75 304.550781 222.988281 303.96875 223.492188 303.757812 C 223.5625 303.730469 223.910156 303.578125 224.421875 303.304688 C 221.113281 303.816406 217.796875 304.121094 214.476562 304.230469 C 214.125 304.242188 213.773438 304.25 213.421875 304.257812 C 213.070312 304.261719 212.722656 304.277344 212.375 304.28125 C 212.316406 304.28125 212.257812 304.285156 212.203125 304.285156 C 212.371094 304.613281 212.554688 304.933594 212.734375 305.25 C 213.671875 306.882812 214.761719 308.382812 216.027344 309.675781 L 216.167969 309.714844 L 216.585938 309.839844 L 216.640625 309.855469 C 218.300781 310.34375 220.050781 310.863281 221.734375 311.378906 C 222.089844 311.488281 222.441406 311.597656 222.792969 311.707031 C 223.148438 311.816406 223.5 311.929688 223.84375 312.039062 C 224.203125 312.152344 224.554688 312.265625 224.898438 312.375 C 226.007812 312.734375 227.011719 313.078125 227.859375 313.390625 C 228.628906 313.675781 229.273438 313.933594 229.722656 314.152344 C 238.039062 312.261719 244.265625 302.582031 244.265625 291.449219 C 244.265625 291.132812 244.238281 290.820312 244.230469 290.507812 C 244.214844 290.042969 244.210938 289.574219 244.175781 289.117188 C 244.140625 288.683594 244.078125 288.257812 244.027344 287.828125 C 242.953125 278.921875 238.011719 271.707031 231.535156 269.273438 C 230.992188 269.070312 230.4375 268.902344 229.875 268.765625 C 229.261719 268.621094 228.640625 268.519531 228.007812 268.460938 C 227.585938 268.417969 227.167969 268.375 226.738281 268.375 C 220.058594 268.375 214.246094 273.320312 211.285156 280.574219 C 212.347656 280.589844 213.40625 280.558594 214.464844 280.523438 C 214.859375 280.507812 215.25 280.515625 215.644531 280.492188 Z M 215.644531 280.492188 " fill-opacity="1" fill-rule="nonzero"/><g clip-path="url(#1e10c53e3c)"><path fill="#000000" d="M 253.078125 62.535156 C 237.53125 59.203125 220.480469 76.9375 215.054688 102.082031 C 209.636719 127.226562 217.871094 150.398438 233.414062 153.738281 C 234.695312 154.015625 235.996094 154.152344 237.300781 154.152344 C 243.757812 154.152344 250.414062 150.824219 256.40625 144.515625 C 256.648438 144.261719 256.878906 144 257.113281 143.738281 C 263.953125 136.960938 269.078125 126.976562 271.621094 114.902344 C 275.328125 97.285156 273.902344 83.605469 267.414062 74.203125 C 263.957031 68.054688 259.0625 63.820312 253.078125 62.535156 Z M 254.039062 90.796875 C 253.355469 94.863281 248.902344 97.636719 243.445312 97.796875 C 243 97.8125 242.550781 97.804688 242.09375 97.785156 C 241.65625 97.761719 241.210938 97.722656 240.765625 97.667969 L 229.867188 150.207031 C 229.855469 150.269531 229.863281 150.328125 229.859375 150.386719 C 218.027344 144.417969 212.308594 124.261719 217 102.5 C 221.605469 81.148438 234.710938 65.320312 247.710938 64.183594 L 244.402344 80.132812 C 244.839844 80.242188 245.261719 80.367188 245.679688 80.507812 C 246.109375 80.652344 246.527344 80.8125 246.933594 80.984375 C 251.683594 83 254.691406 86.898438 254.039062 90.796875 Z M 256.050781 179.433594 C 255.882812 179.789062 255.527344 179.996094 255.15625 179.996094 C 255.011719 179.996094 254.863281 179.964844 254.726562 179.894531 C 251.574219 178.375 249.414062 176.296875 247.910156 174.117188 C 245.214844 176.046875 228.167969 187.34375 198.867188 187.34375 C 193.394531 187.34375 187.492188 186.949219 181.175781 186.027344 C 159.910156 182.914062 142.605469 172.292969 129.671875 154.449219 L 124.425781 154.519531 C 123.878906 155.25 123.300781 155.988281 122.648438 156.746094 C 122.453125 156.972656 122.175781 157.089844 121.894531 157.089844 C 121.667969 157.089844 121.4375 157.011719 121.25 156.851562 C 120.832031 156.496094 120.785156 155.867188 121.140625 155.453125 C 128.101562 147.347656 128.605469 140.523438 128.609375 140.453125 C 128.644531 139.90625 129.113281 139.492188 129.660156 139.523438 C 130.207031 139.554688 130.625 140.023438 130.59375 140.570312 C 130.582031 140.769531 130.351562 143.972656 128.082031 148.605469 C 128.273438 148.886719 128.492188 149.214844 128.761719 149.628906 C 141.609375 169.238281 159.34375 180.824219 181.464844 184.0625 C 221.6875 189.953125 244.59375 174.089844 246.867188 172.421875 C 244.324219 167.667969 244.554688 162.976562 244.558594 162.902344 C 244.59375 162.355469 245.070312 161.929688 245.609375 161.972656 C 246.160156 162.007812 246.574219 162.476562 246.542969 163.023438 C 246.519531 163.449219 246.042969 173.503906 255.589844 178.109375 C 256.085938 178.347656 256.292969 178.941406 256.050781 179.433594 Z M 154.097656 31.414062 C 153.832031 30.933594 154 30.332031 154.480469 30.0625 C 178.105469 16.855469 195.816406 35.8125 195.992188 36.003906 C 196.359375 36.410156 196.332031 37.039062 195.925781 37.40625 C 195.734375 37.582031 195.496094 37.664062 195.253906 37.664062 C 194.984375 37.664062 194.714844 37.558594 194.519531 37.34375 C 193.84375 36.601562 177.679688 19.371094 155.453125 31.792969 C 154.972656 32.0625 154.367188 31.890625 154.097656 31.414062 Z M 278.019531 60.261719 C 278.300781 60.734375 278.148438 61.34375 277.675781 61.625 C 277.515625 61.71875 277.339844 61.765625 277.167969 61.765625 C 276.828125 61.765625 276.496094 61.589844 276.3125 61.28125 C 262.554688 38.296875 240.308594 47.230469 239.367188 47.621094 C 238.863281 47.835938 238.28125 47.59375 238.066406 47.089844 C 237.855469 46.585938 238.09375 46.003906 238.601562 45.792969 C 238.847656 45.691406 263.371094 35.78125 278.019531 60.261719 Z M 361.726562 207.347656 C 362.222656 199.710938 361.332031 191.992188 358.855469 184.652344 C 353.921875 170.035156 343.765625 157.667969 330.222656 150.167969 C 327.019531 148.394531 323.65625 146.871094 320.203125 145.59375 C 328.269531 84.753906 288.148438 26.757812 227.011719 13.621094 C 195.851562 6.929688 163.949219 12.75 137.175781 30.003906 C 110.402344 47.261719 91.964844 73.894531 85.261719 104.992188 C 84.890625 106.710938 84.574219 108.429688 84.277344 110.152344 C 79.902344 111.207031 75.644531 112.695312 71.449219 114.660156 C 64.820312 117.765625 58.617188 122.421875 53.703125 127.835938 C 48.238281 133.859375 44.289062 140.515625 41.269531 148.019531 C 40.28125 150.464844 39.492188 153.015625 38.867188 155.613281 C 27.023438 159.667969 19.078125 168.238281 19.988281 177.265625 C 20.347656 180.839844 22.050781 184.089844 24.769531 186.816406 C 23.449219 198.757812 22.125 222.4375 30.617188 232.972656 C 33.0625 236.003906 35.472656 238.78125 37.757812 241.300781 C 39.203125 244.984375 41.007812 248.613281 43.257812 251.664062 C 48.144531 258.300781 54.519531 262.316406 59.109375 264.554688 C 64.40625 270.835938 70.425781 275.804688 75.539062 276.957031 C 76.3125 277.132812 77.058594 277.21875 77.773438 277.21875 C 80.242188 277.21875 82.34375 276.191406 83.9375 274.183594 C 90.445312 265.980469 86.363281 260.582031 82.414062 255.355469 C 79.484375 251.484375 76.71875 247.828125 77.640625 242.84375 C 78.328125 239.105469 78.425781 235.671875 78.21875 232.664062 C 79.746094 234.503906 81.644531 236.445312 84.230469 238.320312 C 89.929688 242.4375 94.171875 244.375 97.601562 244.375 C 98.355469 244.375 99.070312 244.28125 99.75 244.097656 C 102.304688 243.402344 104.253906 241.453125 105.707031 238.140625 C 108.515625 231.734375 104.878906 226.679688 100.671875 220.820312 C 96.796875 215.429688 92.40625 209.324219 91.167969 200.363281 C 89.746094 190.046875 84.945312 183.429688 80.640625 179.441406 C 82.015625 176.734375 82.597656 173.878906 82.308594 171.015625 C 81.523438 163.203125 74.300781 157.039062 64.328125 154.472656 C 65.664062 151.683594 67.230469 149.019531 69.039062 146.503906 C 71.058594 144.074219 73.285156 141.84375 75.71875 139.828125 C 77.929688 138.246094 80.265625 136.863281 82.699219 135.660156 C 83.644531 156.449219 90.0625 176.710938 101.671875 194.660156 C 111.640625 210.066406 124.746094 222.6875 140.015625 231.914062 C 137.667969 241.261719 138.230469 251.539062 141.902344 260.457031 C 145.835938 270.011719 151.882812 278.445312 159.890625 285.050781 C 163.589844 288.101562 167.492188 290.800781 171.574219 293.175781 C 170.738281 294.328125 169.878906 295.464844 169.015625 296.597656 C 165.816406 300.648438 162.457031 304.566406 158.953125 308.355469 C 154.753906 305.714844 150.160156 304.515625 146.183594 304.992188 C 146.195312 304.734375 146.214844 304.46875 146.238281 304.214844 C 146.269531 303.886719 146.289062 303.566406 146.300781 303.253906 C 146.335938 303.015625 146.351562 302.867188 146.355469 302.835938 C 146.371094 302.691406 146.347656 302.550781 146.304688 302.421875 C 146.050781 280.1875 131.863281 268.191406 118.5 268.191406 C 111.976562 268.191406 105.769531 270.300781 100.546875 274.292969 L 100.367188 274.425781 C 99.636719 274.992188 98.980469 275.578125 98.371094 276.171875 C 97.667969 276.632812 96.992188 277.128906 96.371094 277.707031 C 95.570312 278.453125 94.878906 279.402344 94.277344 280.46875 C 93.878906 280.773438 93.484375 281.078125 93.113281 281.421875 C 88.242188 285.96875 86.882812 296.789062 90.148438 305.046875 C 91.140625 307.546875 92.835938 310.746094 94.628906 314.132812 C 97.5 319.546875 100.753906 325.6875 102.230469 330.960938 C 108.078125 351.851562 113.703125 360.628906 117.394531 364.3125 C 118.804688 365.722656 121.300781 366.480469 123.867188 366.890625 C 125.820312 367.394531 127.988281 367.664062 130.3125 367.664062 C 130.753906 367.664062 131.207031 367.648438 131.660156 367.628906 C 132.242188 367.683594 132.839844 367.71875 133.453125 367.71875 C 134.574219 367.71875 136.148438 367.34375 137.773438 366.84375 C 139.804688 366.410156 141.859375 365.816406 143.878906 365.03125 C 153.65625 361.238281 158.40625 355.394531 160.683594 350.128906 C 163.796875 348.089844 166.605469 344.960938 168.578125 341.1875 C 170.492188 337.53125 171.453125 333.640625 171.441406 329.808594 C 179.84375 321.257812 187.433594 312.039062 194.171875 302.253906 C 199.378906 303.472656 204.667969 304.132812 209.984375 304.253906 C 210.773438 305.953125 211.71875 307.535156 212.820312 308.96875 C 208.253906 309.496094 203.878906 311.566406 200.230469 314.996094 C 195.484375 319.460938 192.539062 325.707031 192.539062 331.296875 C 192.539062 336.480469 193.328125 340.621094 194.898438 343.851562 C 194.761719 347.242188 195.273438 351.777344 198.34375 354.839844 C 203.785156 360.273438 211.867188 361.332031 223.996094 361.332031 C 237.53125 361.332031 261.183594 358.8125 267.523438 341.929688 C 269.09375 337.753906 268.828125 333.398438 268.542969 328.785156 C 268.265625 324.289062 267.980469 319.632812 269.5625 315.160156 C 276.039062 296.816406 265.828125 279.597656 259.808594 274.890625 C 254.921875 269.851562 248.253906 266.539062 240.925781 266.144531 C 237.703125 265.976562 234.554688 266.351562 231.554688 267.195312 C 230.011719 266.6875 228.402344 266.390625 226.738281 266.390625 C 219.039062 266.390625 212.386719 272.15625 209.214844 280.488281 C 208.589844 280.460938 207.964844 280.445312 207.339844 280.398438 C 211.683594 272.070312 215.484375 263.4375 218.710938 254.546875 C 219.546875 252.238281 220.328125 249.914062 221.082031 247.582031 C 263.53125 240.628906 300.136719 210.941406 314.648438 168.992188 C 317.828125 170.488281 320.867188 172.242188 323.714844 174.300781 C 326.136719 176.3125 328.359375 178.527344 330.371094 180.945312 C 332.199219 183.492188 333.78125 186.191406 335.101562 189.03125 C 336.289062 192.144531 337.164062 195.351562 337.726562 198.636719 C 337.742188 198.792969 337.75 198.953125 337.761719 199.109375 C 323.824219 198.144531 311.933594 203.65625 309.261719 213.292969 C 307.828125 218.457031 309.289062 224.089844 313.027344 229.195312 C 309.964844 231.207031 297.566406 240.269531 298.101562 254.902344 C 298.027344 263.078125 296.667969 264.25 290.140625 269.882812 L 289.746094 270.222656 C 285.617188 273.785156 283.378906 279.019531 283.898438 283.882812 C 284.320312 287.820312 286.523438 291.066406 290.105469 293.019531 C 295.457031 295.941406 301.699219 289.300781 307.203125 283.445312 C 310.851562 279.558594 314.992188 275.15625 317.160156 275.839844 C 317.292969 275.878906 317.320312 275.929688 317.351562 276 C 317.539062 276.464844 317.386719 277.332031 317.011719 278.453125 C 312.945312 280.824219 304.910156 286.285156 302.621094 293.492188 C 302.050781 295.273438 301.878906 297.050781 302.089844 298.804688 C 300.121094 300.957031 298.449219 303.410156 297.613281 306.113281 C 296.550781 309.550781 296.957031 312.949219 298.820312 316.214844 C 299.386719 317.203125 300.101562 318.023438 300.933594 318.695312 C 301.121094 322.214844 302.507812 325.121094 305.730469 326.957031 C 307.15625 327.769531 308.640625 328.175781 310.167969 328.175781 C 311.242188 328.175781 312.335938 327.976562 313.445312 327.574219 C 318.570312 325.71875 323.40625 319.734375 327.332031 313.300781 C 327.453125 313.328125 327.578125 313.332031 327.707031 313.308594 C 328.074219 313.246094 336.84375 311.570312 351.464844 293.265625 C 366.085938 274.96875 364.941406 242.96875 364.886719 241.613281 C 364.886719 241.605469 364.882812 241.601562 364.882812 241.59375 C 369.402344 239.085938 372.5 235.480469 373.714844 231.101562 C 375.324219 225.304688 373.421875 218.9375 368.359375 213.179688 C 366.480469 211.042969 364.242188 209.085938 361.726562 207.347656 Z M 80.332031 171.214844 C 80.5625 173.527344 80.113281 175.84375 79.070312 178.074219 C 79.027344 178.167969 78.996094 178.261719 78.949219 178.355469 C 78.84375 178.574219 78.714844 178.792969 78.59375 179.011719 C 78.542969 179.105469 78.484375 179.199219 78.429688 179.292969 C 78.3125 179.496094 78.199219 179.699219 78.070312 179.902344 C 78.007812 180 77.960938 180.097656 77.898438 180.195312 C 76.738281 181.957031 75.1875 183.640625 73.261719 185.195312 C 72.949219 185.449219 72.832031 185.851562 72.929688 186.21875 C 72.964844 186.351562 73.023438 186.476562 73.113281 186.589844 C 73.460938 187.015625 74.089844 187.082031 74.511719 186.738281 C 76.351562 185.25 77.878906 183.648438 79.089844 181.972656 C 79.257812 181.738281 79.425781 181.503906 79.582031 181.265625 C 79.773438 181.449219 79.964844 181.636719 80.15625 181.828125 C 81.011719 182.691406 81.875 183.660156 82.714844 184.753906 C 85.617188 188.523438 88.242188 193.703125 89.199219 200.632812 C 90.503906 210.082031 95.246094 216.675781 99.054688 221.976562 C 103.226562 227.78125 106.238281 231.976562 103.886719 237.34375 C 102.6875 240.074219 101.164062 241.65625 99.230469 242.183594 C 96.125 243.03125 91.730469 241.289062 85.398438 236.710938 C 82.46875 234.59375 80.457031 232.347656 78.867188 230.296875 C 78.65625 230.023438 78.453125 229.757812 78.257812 229.496094 C 78.097656 229.28125 77.9375 229.070312 77.785156 228.863281 C 77.742188 228.800781 77.703125 228.746094 77.660156 228.6875 C 77.480469 228.441406 77.300781 228.191406 77.128906 227.953125 C 76.878906 227.609375 76.636719 227.273438 76.398438 226.945312 C 75.890625 226.257812 75.394531 225.617188 74.882812 225.054688 C 73.308594 223.316406 71.570312 222.3125 68.894531 222.902344 C 68.785156 222.925781 68.675781 222.941406 68.558594 222.972656 C 68.03125 223.113281 67.710938 223.65625 67.851562 224.183594 C 67.992188 224.714844 68.535156 225.027344 69.066406 224.894531 C 71.824219 224.167969 72.96875 225.574219 75.515625 229.113281 C 75.625 229.269531 75.746094 229.433594 75.863281 229.59375 C 75.902344 229.859375 75.945312 230.117188 75.984375 230.394531 C 76.035156 230.804688 76.082031 231.234375 76.125 231.667969 C 76.164062 232.09375 76.199219 232.53125 76.230469 232.980469 C 76.414062 235.804688 76.324219 239.011719 75.683594 242.484375 C 74.605469 248.328125 77.910156 252.699219 80.828125 256.554688 C 84.640625 261.597656 87.933594 265.949219 82.378906 272.949219 C 80.785156 274.957031 78.691406 275.636719 75.976562 275.023438 C 72.160156 274.160156 67.683594 270.847656 63.429688 266.398438 C 62.910156 265.855469 62.394531 265.289062 61.882812 264.714844 C 61.359375 264.128906 60.839844 263.527344 60.328125 262.910156 C 58.265625 260.425781 56.3125 257.734375 54.585938 255.003906 C 54.402344 254.714844 54.222656 254.425781 54.046875 254.136719 C 53.867188 253.84375 53.6875 253.550781 53.515625 253.261719 C 50.867188 248.808594 48.867188 244.347656 48.007812 240.601562 L 44.382812 224.816406 L 44.363281 224.722656 C 44.355469 224.683594 44.328125 224.652344 44.3125 224.613281 C 44.144531 224.152344 43.667969 223.867188 43.171875 223.976562 C 43.101562 223.996094 43.046875 224.035156 42.980469 224.0625 C 42.566406 224.257812 42.320312 224.703125 42.425781 225.167969 L 46.070312 241.046875 C 46.746094 243.996094 48.082031 247.34375 49.859375 250.785156 C 50.324219 251.683594 50.820312 252.589844 51.34375 253.5 C 51.828125 254.335938 52.332031 255.175781 52.859375 256.011719 C 53.8125 257.523438 54.839844 259.023438 55.914062 260.488281 C 52.242188 258.214844 48.15625 254.96875 44.859375 250.488281 C 43.800781 249.054688 42.847656 247.46875 41.980469 245.804688 C 41.492188 244.867188 41.03125 243.902344 40.601562 242.921875 C 40.214844 242.046875 39.855469 241.164062 39.511719 240.277344 C 36.238281 231.761719 34.886719 222.867188 34.582031 220.605469 C 34.535156 220.265625 34.511719 220.074219 34.507812 220.058594 C 34.449219 219.511719 33.972656 219.132812 33.410156 219.183594 C 32.863281 219.246094 32.472656 219.738281 32.535156 220.28125 C 32.589844 220.777344 33.464844 228.125 36.027344 236.347656 C 34.757812 234.875 33.46875 233.339844 32.167969 231.726562 C 24.527344 222.253906 25.421875 200.519531 26.625 188.464844 C 30.839844 191.8125 36.785156 194.128906 43.785156 194.867188 C 45.339844 195.03125 46.914062 195.113281 48.507812 195.113281 C 50.074219 195.113281 51.652344 195.035156 53.234375 194.875 C 55.261719 194.671875 57.28125 194.335938 59.226562 193.882812 C 59.761719 193.757812 60.09375 193.226562 59.96875 192.691406 C 59.84375 192.160156 59.3125 191.824219 58.777344 191.949219 C 56.910156 192.386719 54.980469 192.707031 53.035156 192.902344 C 50.976562 193.105469 48.925781 193.160156 46.902344 193.085938 C 45.925781 193.050781 44.953125 192.992188 43.996094 192.894531 C 36.796875 192.132812 30.800781 189.648438 26.875 186.097656 C 26.5625 185.8125 26.25 185.53125 25.964844 185.234375 C 25.652344 184.90625 25.355469 184.574219 25.074219 184.230469 C 23.320312 182.097656 22.230469 179.675781 21.964844 177.066406 C 21.179688 169.230469 28.015625 161.753906 38.367188 157.882812 C 37.46875 162.390625 37.078125 167.007812 37.21875 171.53125 C 37.269531 173.074219 37.628906 174.59375 38.234375 176.011719 C 33.304688 173.484375 31.375 170.636719 31.335938 170.582031 C 31.039062 170.121094 30.425781 169.988281 29.964844 170.28125 C 29.5 170.578125 29.367188 171.191406 29.664062 171.652344 C 29.773438 171.824219 31.753906 174.800781 36.785156 177.503906 C 37.289062 177.773438 37.820312 178.039062 38.382812 178.296875 C 38.953125 178.5625 39.554688 178.820312 40.191406 179.070312 C 41.410156 179.546875 42.734375 179.992188 44.203125 180.378906 C 45.601562 180.75 47.03125 180.910156 48.460938 180.910156 C 53.824219 180.910156 59.183594 178.636719 62.921875 176.589844 C 63.660156 176.183594 64.328125 175.792969 64.929688 175.425781 C 65.621094 175 66.214844 174.613281 66.6875 174.292969 C 67.414062 173.800781 67.863281 173.460938 67.957031 173.390625 C 68.390625 173.058594 68.472656 172.433594 68.140625 172 C 68.007812 171.828125 67.828125 171.730469 67.636719 171.671875 C 67.640625 171.667969 67.652344 171.652344 67.652344 171.652344 C 67.652344 171.652344 64.25 170.515625 61.082031 169.507812 C 61.097656 168.066406 61.148438 166.621094 61.28125 165.183594 C 61.78125 162.15625 62.5625 159.195312 63.585938 156.304688 C 72.902344 158.605469 79.621094 164.152344 80.332031 171.214844 Z M 138.847656 362.625 C 137.726562 364.476562 135.5 365.375 132.035156 365.375 L 131.667969 365.378906 C 131.035156 365.378906 130.4375 365.371094 129.859375 365.359375 C 128.4375 365.328125 127.183594 365.253906 126.085938 365.148438 C 125.316406 365.074219 124.625 364.984375 123.996094 364.882812 C 123.785156 364.847656 123.578125 364.8125 123.382812 364.777344 C 120.78125 364.285156 119.457031 363.566406 118.796875 362.910156 C 118.082031 362.195312 117.285156 361.261719 116.425781 360.074219 C 115.925781 359.382812 115.398438 358.597656 114.855469 357.710938 C 111.757812 352.660156 108.027344 344.300781 104.144531 330.425781 C 102.613281 324.949219 99.304688 318.707031 96.386719 313.203125 C 94.621094 309.871094 92.949219 306.71875 92 304.316406 C 89.683594 298.460938 89.914062 291.019531 92.1875 286.167969 C 92.621094 285.246094 93.117188 284.410156 93.695312 283.707031 C 93.808594 283.566406 93.933594 283.445312 94.054688 283.316406 C 94.195312 283.167969 94.328125 283.007812 94.472656 282.871094 C 94.757812 282.601562 95.058594 282.355469 95.367188 282.113281 C 95.515625 281.996094 95.671875 281.886719 95.828125 281.773438 C 96.222656 281.484375 96.632812 281.222656 97.054688 280.980469 C 99.257812 279.714844 101.773438 279.039062 104.378906 279.039062 C 105.566406 279.039062 106.773438 279.179688 107.96875 279.460938 C 113.453125 280.753906 117.78125 284.679688 119.847656 290.230469 C 122.386719 297.0625 122.265625 302.042969 122.152344 306.855469 C 122.019531 312.296875 121.898438 317.441406 125.519531 324.472656 C 126.359375 326.097656 127.25 327.792969 128.164062 329.523438 C 134.527344 341.617188 142.453125 356.671875 138.847656 362.625 Z M 143.765625 362.433594 C 142.953125 362.792969 141.757812 363.296875 140.4375 363.804688 C 140.472656 363.75 140.515625 363.703125 140.550781 363.648438 C 144.734375 356.738281 136.867188 341.789062 129.921875 328.601562 C 129.011719 326.875 128.125 325.183594 127.289062 323.5625 C 123.898438 316.980469 124.015625 312.085938 124.140625 306.902344 C 124.257812 301.902344 124.382812 296.730469 121.710938 289.542969 C 119.410156 283.355469 114.570312 278.976562 108.425781 277.527344 C 105.410156 276.816406 102.359375 276.945312 99.550781 277.78125 C 99.527344 277.785156 99.507812 277.792969 99.484375 277.800781 C 99.535156 277.769531 99.585938 277.730469 99.636719 277.695312 C 101.835938 276.316406 104.464844 275.59375 107.289062 275.59375 C 108.414062 275.59375 109.570312 275.707031 110.738281 275.941406 C 116.917969 277.167969 122.371094 281.496094 124.976562 287.234375 C 128.902344 295.890625 128.785156 302.253906 128.675781 307.871094 C 128.574219 313.359375 128.476562 318.542969 132.277344 324.4375 C 134.136719 327.316406 135.71875 330.007812 137.078125 332.53125 C 139.796875 337.566406 141.601562 341.90625 142.765625 345.597656 C 146.050781 356.023438 144.265625 361.277344 143.765625 362.433594 Z M 159.121094 348.765625 C 158.910156 349.28125 158.691406 349.789062 158.449219 350.273438 C 158.210938 350.753906 157.96875 351.238281 157.699219 351.6875 C 154.621094 356.84375 149.789062 360.042969 146.070312 361.886719 C 146.6875 359.765625 147.253906 355.734375 145.882812 349.441406 C 145.746094 348.8125 145.585938 348.164062 145.410156 347.488281 C 145.1875 346.640625 144.929688 345.761719 144.636719 344.84375 C 143.4375 341.101562 141.609375 336.742188 138.910156 331.734375 C 138.316406 330.636719 137.695312 329.515625 137.015625 328.351562 C 136.546875 327.546875 136.058594 326.730469 135.546875 325.894531 C 135.035156 325.066406 134.503906 324.222656 133.949219 323.359375 C 130.476562 317.972656 130.5625 313.3125 130.664062 307.910156 C 130.777344 302.082031 130.902344 295.480469 126.789062 286.417969 C 123.878906 280.011719 118.027344 275.367188 111.128906 273.992188 C 109.019531 273.574219 106.945312 273.5 104.984375 273.753906 C 109.105469 271.417969 113.707031 270.179688 118.5 270.179688 C 131.015625 270.179688 144.316406 281.679688 144.328125 303 C 144.257812 303.4375 144.097656 304.285156 143.777344 305.492188 C 143.679688 305.863281 143.570312 306.261719 143.4375 306.699219 C 143.320312 307.085938 143.183594 307.507812 143.039062 307.945312 C 142.445312 309.722656 141.601562 311.894531 140.386719 314.425781 C 140.152344 314.917969 140.359375 315.511719 140.855469 315.746094 C 140.996094 315.8125 141.140625 315.84375 141.285156 315.84375 C 141.65625 315.84375 142.011719 315.636719 142.183594 315.28125 C 143.644531 312.230469 144.59375 309.679688 145.214844 307.6875 C 145.230469 307.699219 145.238281 307.710938 145.25 307.71875 C 146.265625 308.421875 147.40625 309.308594 148.589844 310.378906 C 148.726562 310.503906 148.867188 310.628906 149.007812 310.761719 C 150.238281 311.914062 151.507812 313.269531 152.738281 314.863281 C 156.242188 319.394531 159.394531 325.835938 160.375 334.703125 C 160.578125 336.527344 160.707031 338.433594 160.707031 340.46875 C 160.707031 343.613281 160.09375 346.351562 159.121094 348.765625 Z M 169.347656 331.878906 C 168.765625 337.890625 165.644531 343.242188 161.878906 346.671875 C 162.535156 344.179688 162.695312 341.996094 162.695312 340.46875 C 162.695312 338.453125 162.570312 336.5625 162.378906 334.742188 C 161.367188 325.160156 157.925781 318.238281 154.128906 313.410156 C 153.382812 312.460938 152.625 311.601562 151.871094 310.808594 C 152.722656 309.71875 154.761719 308.980469 155.558594 308.722656 C 156.238281 309.066406 156.90625 309.457031 157.5625 309.875 C 162.507812 313.039062 166.683594 318.226562 168.445312 323.558594 C 169.378906 326.390625 169.605469 329.199219 169.347656 331.878906 Z M 269.425781 299.265625 C 269.933594 304.039062 269.550781 309.21875 267.6875 314.5 C 265.96875 319.351562 266.269531 324.210938 266.558594 328.910156 C 266.828125 333.304688 267.082031 337.453125 265.664062 341.234375 C 259.742188 356.996094 237.015625 359.347656 223.996094 359.347656 C 212.390625 359.347656 204.703125 358.382812 199.75 353.4375 C 198.035156 351.726562 197.289062 349.378906 197.015625 347.109375 C 197.265625 347.402344 197.503906 347.703125 197.773438 347.96875 C 202.785156 352.9375 210.839844 353.449219 220.285156 353.449219 C 221.488281 353.449219 222.714844 353.441406 223.960938 353.433594 C 225.253906 353.425781 226.570312 353.414062 227.902344 353.414062 C 241.515625 353.414062 254.203125 348.796875 260.222656 341.648438 C 263.308594 337.980469 264.542969 333.75 263.78125 329.410156 C 262.605469 322.691406 264.351562 314.863281 265.894531 307.953125 C 266.566406 304.9375 267.210938 302.027344 267.609375 299.328125 Z M 240.820312 268.128906 C 246.777344 268.445312 252.261719 270.84375 256.585938 274.566406 C 256.835938 274.78125 257.074219 275.011719 257.316406 275.238281 C 257.71875 275.609375 258.125 275.976562 258.503906 276.375 C 263.09375 281.15625 265.960938 287.589844 266.007812 294.519531 C 266.03125 298.195312 265.023438 302.726562 263.953125 307.523438 C 262.371094 314.609375 260.578125 322.644531 261.824219 329.75 C 262.488281 333.546875 261.4375 337.121094 258.699219 340.371094 C 253.042969 347.089844 240.953125 351.429688 227.902344 351.429688 C 226.566406 351.429688 225.246094 351.4375 223.945312 351.449219 C 213.371094 351.519531 204.238281 351.582031 199.175781 346.5625 C 198.292969 345.6875 197.554688 344.644531 196.925781 343.460938 C 196.617188 342.886719 196.34375 342.269531 196.097656 341.617188 C 195.851562 340.964844 195.632812 340.269531 195.445312 339.539062 C 194.84375 337.191406 194.527344 334.46875 194.527344 331.296875 C 194.527344 326.234375 197.234375 320.542969 201.59375 316.441406 C 205.277344 312.976562 209.757812 311.042969 214.433594 310.851562 C 214.558594 310.980469 214.671875 311.128906 214.800781 311.257812 L 214.976562 311.433594 L 216.082031 311.761719 C 216.996094 312.027344 218.515625 312.476562 220.210938 312.988281 C 220.558594 313.09375 220.910156 313.203125 221.269531 313.3125 C 221.621094 313.421875 221.972656 313.53125 222.328125 313.640625 C 222.609375 313.730469 222.890625 313.816406 223.171875 313.90625 C 224.507812 314.328125 225.792969 314.753906 226.847656 315.128906 C 227.652344 315.824219 228.542969 316.65625 229.507812 317.617188 C 230.261719 318.367188 231.054688 319.191406 231.914062 320.128906 C 232.285156 320.53125 232.914062 320.558594 233.320312 320.191406 C 233.722656 319.820312 233.75 319.191406 233.382812 318.785156 C 232.402344 317.71875 231.496094 316.785156 230.644531 315.945312 C 239.738281 313.589844 246.253906 303.476562 246.253906 291.449219 C 246.253906 290.457031 246.195312 289.484375 246.109375 288.519531 C 246.070312 288.089844 246.011719 287.664062 245.957031 287.238281 C 245.898438 286.816406 245.84375 286.398438 245.773438 285.988281 C 244.410156 278.160156 240.195312 271.707031 234.597656 268.53125 C 236.625 268.171875 238.703125 268.015625 240.820312 268.128906 Z M 226.738281 268.375 C 227.167969 268.375 227.585938 268.417969 228.007812 268.460938 C 228.640625 268.519531 229.261719 268.621094 229.875 268.765625 C 230.4375 268.902344 230.992188 269.070312 231.535156 269.273438 C 238.011719 271.707031 242.953125 278.921875 244.027344 287.828125 C 244.078125 288.257812 244.140625 288.683594 244.175781 289.117188 C 244.210938 289.574219 244.214844 290.042969 244.230469 290.507812 C 244.238281 290.820312 244.265625 291.132812 244.265625 291.449219 C 244.265625 302.582031 238.039062 312.261719 229.722656 314.152344 C 229.273438 313.933594 228.628906 313.675781 227.859375 313.390625 C 227.011719 313.078125 226.007812 312.734375 224.898438 312.375 C 224.554688 312.265625 224.203125 312.152344 223.84375 312.039062 C 223.5 311.929688 223.148438 311.816406 222.792969 311.707031 C 222.441406 311.597656 222.089844 311.488281 221.734375 311.378906 C 220.050781 310.863281 218.300781 310.34375 216.640625 309.855469 L 216.585938 309.839844 L 216.167969 309.714844 L 216.027344 309.675781 C 214.761719 308.382812 213.671875 306.882812 212.734375 305.25 C 212.554688 304.933594 212.371094 304.613281 212.203125 304.285156 C 212.257812 304.285156 212.316406 304.28125 212.375 304.28125 C 212.722656 304.277344 213.070312 304.261719 213.421875 304.257812 C 213.773438 304.25 214.125 304.242188 214.476562 304.230469 C 217.796875 304.121094 221.113281 303.816406 224.421875 303.304688 C 223.910156 303.578125 223.5625 303.730469 223.492188 303.757812 C 222.988281 303.96875 222.75 304.550781 222.957031 305.054688 C 223.117188 305.4375 223.488281 305.664062 223.878906 305.664062 C 224.003906 305.664062 224.132812 305.640625 224.257812 305.589844 C 224.359375 305.546875 234.660156 301.164062 234.417969 290.660156 C 234.097656 276.589844 224.554688 275.257812 224.460938 275.246094 C 223.914062 275.175781 223.417969 275.566406 223.351562 276.109375 C 223.285156 276.652344 223.671875 277.148438 224.214844 277.214844 C 224.277344 277.222656 222.449219 279.671875 219.214844 280.179688 C 218.4375 280.269531 217.664062 280.339844 216.890625 280.398438 C 216.472656 280.429688 216.058594 280.472656 215.644531 280.492188 C 215.25 280.515625 214.859375 280.507812 214.464844 280.523438 C 213.40625 280.558594 212.347656 280.589844 211.285156 280.574219 C 214.246094 273.320312 220.058594 268.375 226.738281 268.375 Z M 192.554688 256.289062 C 190.074219 262.027344 187.324219 267.636719 184.308594 273.097656 C 181.820312 271.703125 179.421875 270.152344 177.121094 268.460938 C 174.078125 265.976562 171.273438 263.226562 168.78125 260.191406 C 167.09375 257.84375 165.617188 255.363281 164.390625 252.75 C 163.609375 250.640625 163.007812 248.480469 162.601562 246.265625 C 162.496094 244.992188 162.460938 243.71875 162.492188 242.441406 C 167.144531 244.058594 171.910156 245.429688 176.800781 246.480469 C 183.027344 247.816406 189.238281 248.636719 195.402344 248.976562 C 194.5 251.429688 193.550781 253.871094 192.554688 256.289062 Z M 318.28125 144.914062 C 314.941406 143.785156 311.53125 142.878906 308.085938 142.242188 C 307.519531 142.136719 306.957031 142.058594 306.402344 142.003906 C 305.582031 141.925781 304.765625 142.207031 304.199219 142.800781 C 299.636719 147.574219 295.863281 153.78125 295.53125 159.949219 C 295.496094 160.652344 295.777344 161.339844 296.253906 161.859375 C 297.734375 163.480469 299.609375 164.816406 301.742188 165.210938 C 305.519531 165.910156 309.214844 166.933594 312.816406 168.25 C 298.683594 209.230469 263.105469 238.332031 221.746094 245.46875 C 213.390625 246.910156 204.804688 247.453125 196.109375 247.019531 C 189.851562 246.707031 183.539062 245.898438 177.21875 244.539062 C 172.21875 243.464844 167.347656 242.050781 162.601562 240.378906 C 162.597656 240.378906 162.597656 240.378906 162.597656 240.378906 C 162.578125 240.371094 162.558594 240.363281 162.539062 240.359375 C 154.820312 237.628906 147.460938 234.144531 140.5625 229.933594 C 125.753906 220.886719 113.042969 208.574219 103.34375 193.582031 C 91.789062 175.722656 85.453125 155.53125 84.644531 134.828125 C 84.316406 126.484375 84.902344 118.058594 86.394531 109.664062 C 86.648438 108.246094 86.898438 106.828125 87.203125 105.410156 C 93.796875 74.832031 111.929688 48.640625 138.253906 31.671875 C 157.460938 19.292969 179.34375 12.902344 201.671875 12.902344 C 209.953125 12.902344 218.300781 13.78125 226.59375 15.5625 C 286.570312 28.449219 325.976562 85.242188 318.28125 144.914062 Z M 304.515625 294.09375 C 306.21875 288.734375 311.691406 284.285156 315.707031 281.621094 C 314.5625 284.089844 313.011719 287.003906 311.550781 289.746094 C 311.148438 290.5 310.738281 291.269531 310.324219 292.054688 C 308.429688 293.261719 306.160156 294.878906 304.019531 296.855469 C 304.066406 295.9375 304.222656 295.015625 304.515625 294.09375 Z M 300.546875 315.230469 C 298.96875 312.464844 298.621094 309.59375 299.515625 306.699219 C 300.117188 304.742188 301.246094 302.90625 302.625 301.226562 C 302.875 300.917969 303.132812 300.609375 303.398438 300.3125 C 303.664062 300.019531 303.9375 299.734375 304.210938 299.453125 C 305.523438 298.121094 306.945312 296.921875 308.328125 295.878906 C 307.25 297.984375 306.195312 300.144531 305.230469 302.300781 C 305.054688 302.6875 304.886719 303.074219 304.71875 303.460938 C 304.554688 303.839844 304.394531 304.21875 304.238281 304.59375 C 302.601562 308.546875 301.367188 312.425781 301.011719 315.890625 C 300.855469 315.675781 300.6875 315.472656 300.546875 315.230469 Z M 371.800781 230.574219 C 370.644531 234.738281 367.515625 238.132812 362.902344 240.394531 C 362.425781 240.628906 361.929688 240.847656 361.417969 241.054688 C 360.882812 241.277344 360.324219 241.480469 359.75 241.675781 C 358.511719 242.09375 357.203125 242.449219 355.8125 242.722656 C 349.703125 243.941406 342.875 243.585938 336.078125 241.707031 C 335.578125 241.570312 335.089844 241.835938 334.902344 242.296875 C 334.890625 242.332031 334.863281 242.359375 334.851562 242.398438 C 334.707031 242.925781 335.015625 243.472656 335.546875 243.617188 C 339.871094 244.8125 344.210938 245.414062 348.394531 245.414062 C 351.078125 245.414062 353.695312 245.167969 356.203125 244.667969 C 358.65625 244.183594 360.898438 243.472656 362.917969 242.570312 C 362.996094 247.839844 362.765625 275.941406 349.914062 292.027344 C 339.15625 305.488281 331.699219 309.660156 328.757812 310.878906 C 333.445312 302.644531 336.542969 294.433594 336.78125 293.800781 C 336.972656 293.285156 336.710938 292.714844 336.195312 292.523438 C 335.6875 292.332031 335.109375 292.59375 334.917969 293.105469 C 334.847656 293.289062 330.390625 305.089844 324.175781 314.550781 C 323.890625 314.980469 323.605469 315.410156 323.3125 315.832031 C 320.101562 320.476562 316.476562 324.367188 312.765625 325.707031 C 310.621094 326.484375 308.640625 326.328125 306.71875 325.234375 C 304.621094 324.039062 303.5 322.207031 303.085938 319.953125 C 303.019531 319.585938 302.96875 319.210938 302.9375 318.824219 C 302.90625 318.441406 302.890625 318.046875 302.894531 317.640625 C 302.921875 314.390625 304.003906 310.535156 305.601562 306.507812 C 305.738281 306.164062 305.875 305.816406 306.019531 305.46875 C 306.167969 305.109375 306.316406 304.75 306.472656 304.390625 C 308.054688 300.71875 309.972656 296.972656 311.824219 293.46875 C 312.128906 292.890625 312.433594 292.316406 312.734375 291.75 C 312.925781 291.390625 313.117188 291.03125 313.304688 290.679688 C 313.40625 290.488281 313.503906 290.308594 313.601562 290.125 C 315.933594 285.742188 317.691406 282.359375 318.628906 279.824219 C 318.8125 279.328125 318.957031 278.871094 319.078125 278.441406 C 319.203125 277.988281 319.289062 277.570312 319.339844 277.183594 C 319.441406 276.417969 319.402344 275.769531 319.191406 275.25 C 318.929688 274.609375 318.433594 274.15625 317.757812 273.945312 C 317.40625 273.835938 317.050781 273.78125 316.6875 273.78125 C 313.554688 273.78125 309.90625 277.664062 305.75 282.085938 C 300.742188 287.417969 295.070312 293.472656 291.058594 291.277344 C 287.226562 289.1875 286.125 285.988281 285.875 283.671875 C 285.425781 279.445312 287.40625 274.867188 291.042969 271.726562 L 291.441406 271.382812 C 298.195312 265.558594 300.007812 263.992188 300.089844 254.875 C 299.585938 241.164062 311.773438 232.410156 314.261719 230.769531 C 316.976562 233.988281 320.613281 236.949219 325.019531 239.367188 C 325.496094 239.628906 326.101562 239.457031 326.367188 238.976562 C 326.386719 238.941406 326.386719 238.902344 326.402344 238.867188 C 326.585938 238.40625 326.421875 237.875 325.976562 237.628906 C 322.71875 235.839844 319.917969 233.746094 317.625 231.480469 C 317.183594 231.046875 316.761719 230.605469 316.359375 230.15625 C 315.980469 229.730469 315.617188 229.304688 315.273438 228.871094 C 311.421875 224.035156 309.828125 218.675781 311.175781 213.820312 C 313.617188 205.023438 324.78125 200.085938 337.910156 201.101562 C 338.046875 203.714844 337.988281 206.328125 337.734375 208.933594 C 337.164062 212.277344 336.273438 215.539062 335.054688 218.703125 C 334.792969 219.265625 334.542969 219.832031 334.265625 220.386719 C 333.78125 221.34375 333.398438 222.335938 333.125 223.34375 C 328.597656 220.355469 325.46875 217.039062 325.410156 216.972656 C 325.035156 216.574219 324.40625 216.550781 324.003906 216.921875 C 323.601562 217.292969 323.578125 217.921875 323.953125 218.324219 C 324.414062 218.820312 334.949219 230.023438 346.222656 230.023438 C 346.707031 230.023438 347.191406 230.003906 347.675781 229.960938 C 359.378906 228.925781 364.339844 223.632812 364.546875 223.410156 C 364.914062 223.003906 364.886719 222.382812 364.484375 222.011719 C 364.339844 221.878906 364.164062 221.816406 363.988281 221.78125 C 363.46875 221.609375 361.617188 220.996094 359.523438 220.316406 C 360.488281 216.828125 361.164062 213.265625 361.53125 209.671875 C 363.523438 211.144531 365.332031 212.746094 366.863281 214.492188 C 371.472656 219.726562 373.222656 225.441406 371.800781 230.574219 Z M 154.351562 136.757812 C 155.617188 137.027344 156.890625 137.160156 158.167969 137.160156 C 158.980469 137.160156 159.792969 137.097656 160.605469 136.992188 C 160.753906 137.382812 160.925781 137.769531 161.113281 138.152344 C 161.808594 141.144531 163.710938 144.136719 166.761719 146.886719 C 171.222656 150.902344 177.613281 153.957031 184.761719 155.492188 C 188.007812 156.191406 191.242188 156.539062 194.34375 156.539062 C 198.066406 156.539062 201.59375 156.035156 204.714844 155.039062 C 210.6875 153.128906 214.503906 149.625 215.464844 145.167969 C 216.203125 141.753906 215.164062 138.160156 212.550781 134.777344 C 211.5625 132.910156 210.121094 131.066406 208.1875 129.328125 C 203.769531 125.351562 197.429688 122.320312 190.339844 120.796875 C 188.039062 120.304688 185.78125 120.015625 183.578125 119.878906 C 187.378906 114.546875 190.597656 107.429688 192.5625 97.914062 C 195.183594 85.21875 194.945312 74.460938 191.882812 65.796875 C 188.78125 55.089844 182.488281 47.371094 174.019531 45.554688 C 158.472656 42.21875 141.417969 59.953125 135.996094 85.097656 C 130.574219 110.242188 138.808594 133.417969 154.351562 136.757812 Z M 179.585938 121.769531 C 179.886719 121.757812 180.1875 121.75 180.492188 121.746094 C 180.585938 121.746094 180.679688 121.742188 180.777344 121.742188 C 180.789062 121.742188 180.800781 121.742188 180.8125 121.742188 C 181.191406 121.742188 181.585938 121.761719 181.972656 121.773438 C 182.03125 121.777344 182.089844 121.777344 182.148438 121.777344 C 184.648438 121.863281 187.257812 122.167969 189.921875 122.738281 C 190.363281 122.835938 190.789062 122.949219 191.222656 123.058594 C 197.445312 124.582031 202.960938 127.296875 206.855469 130.800781 C 207.449219 131.335938 207.980469 131.882812 208.476562 132.433594 C 210.289062 134.441406 211.417969 136.519531 211.839844 138.558594 C 212.078125 139.726562 212.113281 140.886719 211.871094 142.003906 C 211.09375 145.617188 207.828125 148.511719 202.679688 150.15625 C 197.339844 151.863281 190.679688 152.003906 183.925781 150.550781 C 177.167969 149.101562 171.15625 146.238281 166.992188 142.492188 C 166.058594 141.652344 165.257812 140.789062 164.570312 139.917969 C 163.714844 138.832031 163.054688 137.734375 162.589844 136.632812 C 162.460938 136.324219 162.347656 136.015625 162.25 135.707031 C 162.210938 135.585938 162.167969 135.464844 162.136719 135.34375 C 162.082031 135.144531 162.050781 134.949219 162.011719 134.753906 C 161.996094 134.683594 161.980469 134.613281 161.96875 134.546875 C 161.890625 134.125 161.847656 133.707031 161.832031 133.289062 C 161.8125 132.855469 161.832031 132.425781 161.886719 131.996094 C 161.914062 131.761719 161.925781 131.519531 161.972656 131.285156 C 162.039062 130.988281 162.132812 130.699219 162.226562 130.410156 C 163.914062 125.414062 170.429688 122.238281 178.769531 121.796875 C 179.039062 121.785156 179.3125 121.777344 179.585938 121.769531 Z M 137.941406 85.515625 C 142.53125 64.222656 155.578125 48.429688 168.542969 47.210938 L 164.277344 66.699219 C 164.519531 66.730469 164.757812 66.753906 164.996094 66.792969 C 165.199219 66.828125 165.390625 66.875 165.589844 66.914062 C 166.027344 67.003906 166.457031 67.105469 166.878906 67.222656 C 172.800781 68.878906 176.808594 73.320312 176.0625 77.761719 C 175.285156 82.414062 169.574219 85.375 163.0625 84.667969 C 162.714844 84.632812 162.371094 84.589844 162.019531 84.53125 C 161.929688 84.515625 161.839844 84.492188 161.746094 84.476562 C 161.304688 84.394531 160.875 84.300781 160.453125 84.191406 L 149.800781 132.859375 C 138.652344 126.28125 133.382812 106.65625 137.941406 85.515625 Z M 137.941406 85.515625 " fill-opacity="1" fill-rule="nonzero"/></g></svg>